{
    "asset" : {
        "generator" : "Khronos glTF Blender I/O v1.0.5",
        "version" : "2.0"
    },
    "extensionsUsed" : [
        "KHR_lights_punctual"
    ],
    "extensionsRequired" : [
        "KHR_lights_punctual"
    ],
    "extensions" : {
        "KHR_lights_punctual" : {
            "lights" : [
                {
                    "color" : [
                        0.4623546302318573,
                        0.4623546302318573,
                        0.4623546302318573
                    ],
                    "intensity" : 4,
                    "type" : "directional",
                    "name" : "Sun"
                },
                {
                    "color" : [
                        0.4623546302318573,
                        0.4623546302318573,
                        0.4623546302318573
                    ],
                    "intensity" : 4,
                    "type" : "directional",
                    "name" : "Sun.001"
                }
            ]
        }
    },
    "scene" : 0,
    "scenes" : [
        {
            "name" : "Scene",
            "nodes" : [
                1,
                3,
                4,
                5,
                6,
                7,
                8,
                9,
                10
            ]
        }
    ],
    "nodes" : [
        {
            "extensions" : {
                "KHR_lights_punctual" : {
                    "light" : 0
                }
            },
            "name" : "rSun_Orientation",
            "rotation" : [
                -0.7071067690849304,
                0,
                0,
                0.7071067690849304
            ]
        },
        {
            "children" : [
                0
            ],
            "name" : "rSun",
            "rotation" : [
                0.2938336133956909,
                0.49098342657089233,
                0.013195277191698551,
                0.8200139999389648
            ],
            "translation" : [
                480.482666015625,
                1228.054443359375,
                183.0760498046875
            ]
        },
        {
            "extensions" : {
                "KHR_lights_punctual" : {
                    "light" : 1
                }
            },
            "name" : "lSun_Orientation",
            "rotation" : [
                -0.7071067690849304,
                0,
                0,
                0.7071067690849304
            ]
        },
        {
            "children" : [
                2
            ],
            "name" : "lSun",
            "rotation" : [
                0.05673305317759514,
                0.24047860503196716,
                0.2081228643655777,
                0.946380615234375
            ],
            "translation" : [
                -440.31097412109375,
                1228.054443359375,
                183.0760498046875
            ]
        },
        {
            "mesh" : 0,
            "name" : "trcukBody",
            "translation" : [
                197.88128662109375,
                -22.979354858398438,
                55.309730529785156
            ]
        },
        {
            "mesh" : 1,
            "name" : "bedRailsAssembly",
            "rotation" : [
                0,
                1,
                0,
                -6.397578431460715e-07
            ],
            "translation" : [
                -11.3968505859375,
                56.62199401855469,
                -53021.8203125
            ]
        },
        {
            "mesh" : 2,
            "name" : "mesh",
            "rotation" : [
                0.7071068286895752,
                0,
                0,
                0.7071067094802856
            ],
            "translation" : [
                202.47027587890625,
                147.18887329101562,
                -218.99807739257812
            ]
        },
        {
            "mesh" : 3,
            "name" : "cage",
            "translation" : [
                -2.7595062255859375,
                89.60328674316406,
                -125.48204803466797
            ]
        },
        {
            "mesh" : 4,
            "name" : "stepRail",
            "translation" : [
                -2.7595062255859375,
                89.60328674316406,
                -125.48204803466797
            ]
        },
        {
            "mesh" : 5,
            "name" : "antenna",
            "translation" : [
                -16.390548706054688,
                68.12785339355469,
                -470.3571472167969
            ]
        },
        {
            "mesh" : 6,
            "name" : "rope",
            "translation" : [
                -2.7595062255859375,
                89.60328674316406,
                -125.48204803466797
            ]
        }
    ],
    "materials" : [
        {
            "doubleSided" : true,
            "name" : "bodycolor",
            "pbrMetallicRoughness" : {
                "baseColorFactor" : [
                    1,
                    0.9473065137863159,
                    0.8468732833862305,
                    1
                ],
                "metallicFactor" : 0,
                "roughnessFactor" : 0
            }
        },
        {
            "doubleSided" : true,
            "name" : "bedAssembly",
            "pbrMetallicRoughness" : {
                "baseColorFactor" : [
                    0.3591594398021698,
                    0.3591594398021698,
                    0.3591594398021698,
                    1
                ],
                "metallicFactor" : 0,
                "roughnessFactor" : 0.5
            }
        },
        {
            "doubleSided" : true,
            "name" : "Material.001",
            "pbrMetallicRoughness" : {
                "baseColorFactor" : [
                    0.21859250962734222,
                    0.21859250962734222,
                    0.21859250962734222,
                    1
                ],
                "metallicFactor" : 0,
                "roughnessFactor" : 0.5
            }
        },
        {
            "doubleSided" : true,
            "name" : "ropecolor",
            "pbrMetallicRoughness" : {
                "baseColorFactor" : [
                    0.11358991265296936,
                    0.14960406720638275,
                    0.8000000715255737,
                    1
                ],
                "metallicFactor" : 0,
                "roughnessFactor" : 0.5
            }
        }
    ],
    "meshes" : [
        {
            "name" : "Plane.013",
            "primitives" : [
                {
                    "attributes" : {
                        "POSITION" : 0,
                        "NORMAL" : 1
                    },
                    "indices" : 2,
                    "material" : 0
                }
            ]
        },
        {
            "name" : "Plane.016",
            "primitives" : [
                {
                    "attributes" : {
                        "POSITION" : 3,
                        "NORMAL" : 4
                    },
                    "indices" : 5,
                    "material" : 1
                }
            ]
        },
        {
            "name" : "Circle.001",
            "primitives" : [
                {
                    "attributes" : {
                        "POSITION" : 6,
                        "NORMAL" : 7
                    },
                    "indices" : 8,
                    "material" : 1
                }
            ]
        },
        {
            "name" : "Plane.009",
            "primitives" : [
                {
                    "attributes" : {
                        "POSITION" : 9,
                        "NORMAL" : 10
                    },
                    "indices" : 11,
                    "material" : 1
                }
            ]
        },
        {
            "name" : "Plane.008",
            "primitives" : [
                {
                    "attributes" : {
                        "POSITION" : 12,
                        "NORMAL" : 13
                    },
                    "indices" : 14,
                    "material" : 1
                }
            ]
        },
        {
            "name" : "Plane.003",
            "primitives" : [
                {
                    "attributes" : {
                        "POSITION" : 15,
                        "NORMAL" : 16
                    },
                    "indices" : 17,
                    "material" : 2
                }
            ]
        },
        {
            "name" : "Plane.012",
            "primitives" : [
                {
                    "attributes" : {
                        "POSITION" : 18,
                        "NORMAL" : 19
                    },
                    "indices" : 20,
                    "material" : 3
                }
            ]
        }
    ],
    "accessors" : [
        {
            "bufferView" : 0,
            "componentType" : 5126,
            "count" : 7182,
            "max" : [
                -97.57963562011719,
                116.4351806640625,
                258.45703125
            ],
            "min" : [
                -303.597900390625,
                -116.4351806640625,
                -343.46875
            ],
            "type" : "VEC3"
        },
        {
            "bufferView" : 1,
            "componentType" : 5126,
            "count" : 7182,
            "type" : "VEC3"
        },
        {
            "bufferView" : 2,
            "componentType" : 5123,
            "count" : 12813,
            "type" : "SCALAR"
        },
        {
            "bufferView" : 3,
            "componentType" : 5126,
            "count" : 4000,
            "max" : [
                87.51885223388672,
                -26.852428436279297,
                -52741.17578125
            ],
            "min" : [
                -104.86307525634766,
                -43.98744201660156,
                -52951.6171875
            ],
            "type" : "VEC3"
        },
        {
            "bufferView" : 4,
            "componentType" : 5126,
            "count" : 4000,
            "type" : "VEC3"
        },
        {
            "bufferView" : 5,
            "componentType" : 5123,
            "count" : 7584,
            "type" : "SCALAR"
        },
        {
            "bufferView" : 6,
            "componentType" : 5126,
            "count" : 16472,
            "max" : [
                -117.20478057861328,
                270.16265869140625,
                39.62741470336914
            ],
            "min" : [
                -293.1507263183594,
                -62.47700119018555,
                39.28449630737305
            ],
            "type" : "VEC3"
        },
        {
            "bufferView" : 7,
            "componentType" : 5126,
            "count" : 16472,
            "type" : "VEC3"
        },
        {
            "bufferView" : 8,
            "componentType" : 5123,
            "count" : 24708,
            "type" : "SCALAR"
        },
        {
            "bufferView" : 9,
            "componentType" : 5126,
            "count" : 14940,
            "max" : [
                96.38715362548828,
                28.906967163085938,
                185.03179931640625
            ],
            "min" : [
                -95.94475555419922,
                -59.833740234375,
                -164.05914306640625
            ],
            "type" : "VEC3"
        },
        {
            "bufferView" : 10,
            "componentType" : 5126,
            "count" : 14940,
            "type" : "VEC3"
        },
        {
            "bufferView" : 11,
            "componentType" : 5123,
            "count" : 26907,
            "type" : "SCALAR"
        },
        {
            "bufferView" : 12,
            "componentType" : 5126,
            "count" : 3584,
            "max" : [
                116.7928237915039,
                30.71961212158203,
                314.6676025390625
            ],
            "min" : [
                -116.61298370361328,
                -174.60313415527344,
                56.51251220703125
            ],
            "type" : "VEC3"
        },
        {
            "bufferView" : 13,
            "componentType" : 5126,
            "count" : 3584,
            "type" : "VEC3"
        },
        {
            "bufferView" : 14,
            "componentType" : 5123,
            "count" : 6510,
            "type" : "SCALAR"
        },
        {
            "bufferView" : 15,
            "componentType" : 5126,
            "count" : 43013,
            "max" : [
                98.43819427490234,
                1027.253173828125,
                463.06634521484375
            ],
            "min" : [
                -70.71956634521484,
                -82.72685241699219,
                248.07603454589844
            ],
            "type" : "VEC3"
        },
        {
            "bufferView" : 16,
            "componentType" : 5126,
            "count" : 43013,
            "type" : "VEC3"
        },
        {
            "bufferView" : 17,
            "componentType" : 5123,
            "count" : 77367,
            "type" : "SCALAR"
        },
        {
            "bufferView" : 18,
            "componentType" : 5126,
            "count" : 664,
            "max" : [
                84.88597106933594,
                1012.0377197265625,
                118.88829040527344
            ],
            "min" : [
                -84.48345184326172,
                13.089685440063477,
                -96.87786865234375
            ],
            "type" : "VEC3"
        },
        {
            "bufferView" : 19,
            "componentType" : 5126,
            "count" : 664,
            "type" : "VEC3"
        },
        {
            "bufferView" : 20,
            "componentType" : 5123,
            "count" : 1140,
            "type" : "SCALAR"
        }
    ],
    "bufferViews" : [
        {
            "buffer" : 0,
            "byteLength" : 86184,
            "byteOffset" : 0
        },
        {
            "buffer" : 0,
            "byteLength" : 86184,
            "byteOffset" : 86184
        },
        {
            "buffer" : 0,
            "byteLength" : 25626,
            "byteOffset" : 172368
        },
        {
            "buffer" : 0,
            "byteLength" : 48000,
            "byteOffset" : 197996
        },
        {
            "buffer" : 0,
            "byteLength" : 48000,
            "byteOffset" : 245996
        },
        {
            "buffer" : 0,
            "byteLength" : 15168,
            "byteOffset" : 293996
        },
        {
            "buffer" : 0,
            "byteLength" : 197664,
            "byteOffset" : 309164
        },
        {
            "buffer" : 0,
            "byteLength" : 197664,
            "byteOffset" : 506828
        },
        {
            "buffer" : 0,
            "byteLength" : 49416,
            "byteOffset" : 704492
        },
        {
            "buffer" : 0,
            "byteLength" : 179280,
            "byteOffset" : 753908
        },
        {
            "buffer" : 0,
            "byteLength" : 179280,
            "byteOffset" : 933188
        },
        {
            "buffer" : 0,
            "byteLength" : 53814,
            "byteOffset" : 1112468
        },
        {
            "buffer" : 0,
            "byteLength" : 43008,
            "byteOffset" : 1166284
        },
        {
            "buffer" : 0,
            "byteLength" : 43008,
            "byteOffset" : 1209292
        },
        {
            "buffer" : 0,
            "byteLength" : 13020,
            "byteOffset" : 1252300
        },
        {
            "buffer" : 0,
            "byteLength" : 516156,
            "byteOffset" : 1265320
        },
        {
            "buffer" : 0,
            "byteLength" : 516156,
            "byteOffset" : 1781476
        },
        {
            "buffer" : 0,
            "byteLength" : 154734,
            "byteOffset" : 2297632
        },
        {
            "buffer" : 0,
            "byteLength" : 7968,
            "byteOffset" : 2452368
        },
        {
            "buffer" : 0,
            "byteLength" : 7968,
            "byteOffset" : 2460336
        },
        {
            "buffer" : 0,
            "byteLength" : 2280,
            "byteOffset" : 2468304
        }
    ],
    "buffers" : [
        {
            "byteLength" : 2470584,
            "uri" : "data:application/octet-stream;base64,"
        }
    ]
}
