{
    "asset" : {
        "generator" : "Khronos glTF Blender I/O v0.9.36",
        "version" : "2.0"
    },
    "extensionsUsed" : [
        "KHR_lights_punctual"
    ],
    "extensionsRequired" : [
        "KHR_lights_punctual"
    ],
    "extensions" : {
        "KHR_lights_punctual" : {
            "lights" : [
                {
                    "color" : [
                        0.4623546302318573,
                        0.4623546302318573,
                        0.4623546302318573
                    ],
                    "intensity" : 4,
                    "type" : "directional",
                    "name" : "Sun"
                }
            ]
        }
    },
    "scene" : 0,
    "scenes" : [
        {
            "name" : "Scene",
            "nodes" : [
                0,
                1,
                2,
                3,
                4
            ]
        }
    ],
    "nodes" : [
        {
            "mesh" : 0,
            "name" : "leftSide",
            "translation" : [
                131.31170654296875,
                21.82733154296875,
                181.03395080566406
            ]
        },
        {
            "mesh" : 1,
            "name" : "frontSide",
            "scale" : [
                1,
                -1,
                1
            ],
            "translation" : [
                99.57598876953125,
                213.0087890625,
                153.1320343017578
            ]
        },
        {
            "mesh" : 2,
            "name" : "rightSide",
            "scale" : [
                1,
                -1,
                1
            ],
            "translation" : [
                131.31170654296875,
                203.91473388671875,
                181.03395080566406
            ]
        },
        {
            "camera" : 0,
            "name" : "Camera",
            "rotation" : [
                0.7071068286895752,
                0,
                0,
                0.7071067094802856
            ],
            "translation" : [
                310.52606201171875,
                -1846.2552490234375,
                149.76669311523438
            ]
        },
        {
            "extensions" : {
                "KHR_lights_punctual" : {
                    "light" : 0
                }
            },
            "name" : "Sun",
            "rotation" : [
                0.44455385208129883,
                0.036558523774147034,
                0.490826278924942,
                0.748414933681488
            ],
            "translation" : [
                480.482666015625,
                -183.0760498046875,
                410.24407958984375
            ]
        }
    ],
    "cameras" : [
        {
            "name" : "Camera",
            "perspective" : {
                "yfov" : 0.3006173147552095,
                "zfar" : 10000,
                "znear" : 0.10000000149011612
            },
            "type" : "perspective"
        }
    ],
    "materials" : [
        {
            "doubleSided" : true,
            "name" : "Material.002",
            "pbrMetallicRoughness" : {
                "baseColorFactor" : [
                    0.21586042642593384,
                    0.6172067523002625,
                    0.6724433302879333,
                    1
                ],
                "metallicFactor" : 0,
                "roughnessFactor" : 0
            }
        }
    ],
    "meshes" : [
        {
            "name" : "Plane.004",
            "primitives" : [
                {
                    "attributes" : {
                        "POSITION" : 0,
                        "NORMAL" : 1
                    },
                    "indices" : 2,
                    "material" : 0
                }
            ]
        },
        {
            "name" : "Plane.005",
            "primitives" : [
                {
                    "attributes" : {
                        "POSITION" : 3,
                        "NORMAL" : 4
                    },
                    "indices" : 5,
                    "material" : 0
                }
            ]
        },
        {
            "name" : "Plane.007",
            "primitives" : [
                {
                    "attributes" : {
                        "POSITION" : 6,
                        "NORMAL" : 7
                    },
                    "indices" : 8,
                    "material" : 0
                }
            ]
        }
    ],
    "accessors" : [
        {
            "bufferView" : 0,
            "componentType" : 5126,
            "count" : 2137,
            "max" : [
                489.7608642578125,
                188.01806640625,
                59.48527908325195
            ],
            "min" : [
                -91.50342559814453,
                -10.656560897827148,
                -169.59054565429688
            ],
            "type" : "VEC3"
        },
        {
            "bufferView" : 1,
            "componentType" : 5126,
            "count" : 2137,
            "type" : "VEC3"
        },
        {
            "bufferView" : 2,
            "componentType" : 5123,
            "count" : 3525,
            "type" : "SCALAR"
        },
        {
            "bufferView" : 3,
            "componentType" : 5126,
            "count" : 1623,
            "max" : [
                68.34895324707031,
                201.45973205566406,
                36.705265045166016
            ],
            "min" : [
                -70.77699279785156,
                -1.184217929840088,
                -67.00607299804688
            ],
            "type" : "VEC3"
        },
        {
            "bufferView" : 4,
            "componentType" : 5126,
            "count" : 1623,
            "type" : "VEC3"
        },
        {
            "bufferView" : 5,
            "componentType" : 5123,
            "count" : 3549,
            "type" : "SCALAR"
        },
        {
            "bufferView" : 6,
            "componentType" : 5126,
            "count" : 2100,
            "max" : [
                489.7608642578125,
                91.043701171875,
                59.48527908325195
            ],
            "min" : [
                -91.50342559814453,
                -10.656560897827148,
                -169.59054565429688
            ],
            "type" : "VEC3"
        },
        {
            "bufferView" : 7,
            "componentType" : 5126,
            "count" : 2100,
            "type" : "VEC3"
        },
        {
            "bufferView" : 8,
            "componentType" : 5123,
            "count" : 3468,
            "type" : "SCALAR"
        }
    ],
    "bufferViews" : [
        {
            "buffer" : 0,
            "byteLength" : 25644,
            "byteOffset" : 0
        },
        {
            "buffer" : 0,
            "byteLength" : 25644,
            "byteOffset" : 25644
        },
        {
            "buffer" : 0,
            "byteLength" : 7050,
            "byteOffset" : 51288
        },
        {
            "buffer" : 0,
            "byteLength" : 19476,
            "byteOffset" : 58340
        },
        {
            "buffer" : 0,
            "byteLength" : 19476,
            "byteOffset" : 77816
        },
        {
            "buffer" : 0,
            "byteLength" : 7098,
            "byteOffset" : 97292
        },
        {
            "buffer" : 0,
            "byteLength" : 25200,
            "byteOffset" : 104392
        },
        {
            "buffer" : 0,
            "byteLength" : 25200,
            "byteOffset" : 129592
        },
        {
            "buffer" : 0,
            "byteLength" : 6936,
            "byteOffset" : 154792
        }
    ],
    "buffers" : [
        {
            "byteLength" : 161728,
            "uri" : "data:application/octet-stream;base64,"
        }
    ]
}
