<?xml version="1.0" encoding="UTF-8" standalone="no"?>
<svg
   xmlns:dc="http://purl.org/dc/elements/1.1/"
   xmlns:cc="http://creativecommons.org/ns#"
   xmlns:rdf="http://www.w3.org/1999/02/22-rdf-syntax-ns#"
   xmlns:svg="http://www.w3.org/2000/svg"
   xmlns="http://www.w3.org/2000/svg"
   id="svg1407"
   version="1.1"
   viewBox="0 0 124.65259 45.913678"
   height="173.53201"
   width="471.1279">
  <defs
     id="defs1401" />
  <metadata
     id="metadata1404">
    <rdf:RDF>
      <cc:Work
         rdf:about="">
        <dc:format>image/svg+xml</dc:format>
        <dc:type
           rdf:resource="http://purl.org/dc/dcmitype/StillImage" />
        <dc:title></dc:title>
      </cc:Work>
    </rdf:RDF>
  </metadata>
  <g
     transform="translate(-75.397585,-34.927247)"
     id="layer1">
    <g
       id="text1954"
       style="font-style:normal;font-variant:normal;font-weight:normal;font-stretch:normal;font-size:25.5656px;line-height:125%;font-family:sans-serif;-inkscape-font-specification:'sans-serif, Normal';text-align:start;letter-spacing:0px;word-spacing:0px;writing-mode:lr-tb;text-anchor:start;fill:#000000;fill-opacity:1;stroke:none;stroke-width:0.264583px;stroke-linecap:butt;stroke-linejoin:miter;stroke-opacity:1"
       transform="scale(1.0736218,0.93142669)"
       aria-label="Kevin Pope">
      <path
         id="path2048"
         style="font-style:normal;font-variant:normal;font-weight:bold;font-stretch:normal;font-size:25.5656px;font-family:'Adobe Garamond';-inkscape-font-specification:'Adobe Garamond, Bold';font-variant-ligatures:normal;font-variant-caps:normal;font-variant-numeric:normal;font-feature-settings:normal;text-align:start;writing-mode:lr-tb;text-anchor:start;stroke-width:0.264583px"
         d="m 75.230035,41.333497 c 0,-2.709955 0.23009,-2.786652 1.431675,-2.940046 l 0.434615,-0.0767 c 0.178959,-0.127828 0.153394,-0.63914 -0.05113,-0.741403 -0.997059,0.05113 -2.147512,0.0767 -3.272399,0.0767 -1.176019,0 -2.326472,-0.02557 -3.374662,-0.0767 -0.204525,0.102263 -0.230091,0.562444 -0.05113,0.741403 l 0.485747,0.0767 c 1.201584,0.153394 1.431674,0.230091 1.431674,2.940046 v 9.51041 c 0,2.709956 -0.23009,2.786653 -1.431674,2.965612 l -0.357919,0.05113 c -0.178959,0.127828 -0.153394,0.639141 0.05113,0.741403 0.920362,-0.05113 2.121946,-0.0767 3.246834,-0.0767 1.124887,0 2.27534,0.02557 3.476924,0.0767 0.204525,-0.102262 0.23009,-0.613575 0.05113,-0.741403 l -0.63914,-0.0767 c -1.201585,-0.153393 -1.431675,-0.23009 -1.431675,-2.940046 V 47.59707 c 0,-0.741403 -0.05113,-1.354978 0.588009,-1.354978 0.230091,0 0.434616,0.204525 0.613575,0.383484 0.945928,0.971494 3.988236,5.113124 5.061992,6.442536 0.281222,0.357919 0.230091,0.613575 -0.178959,0.690272 L 80.62438,53.86065 c -0.23009,0.127828 -0.23009,0.639141 0.05113,0.741403 1.124887,-0.05113 2.27534,-0.0767 3.528055,-0.0767 1.354978,0 2.377603,0.02557 3.272399,0.0767 0.204525,-0.0767 0.230091,-0.613575 0.05113,-0.741403 l -0.613574,-0.0767 c -0.766966,-0.102259 -1.354975,-0.33235 -1.891853,-0.97149 -1.840725,-2.147512 -4.269458,-5.189821 -6.289142,-7.848645 -0.281222,-0.383484 -0.230091,-0.536878 0.0767,-0.843665 0.997059,-0.99706 2.019683,-2.04525 3.119005,-3.144572 1.764028,-1.712896 2.454299,-2.326471 4.831902,-2.658824 0.255656,-0.127828 0.204525,-0.664706 -0.0767,-0.741403 -0.920362,0.02557 -1.712896,0.0767 -2.812218,0.0767 -0.945928,0 -1.789593,-0.02557 -2.863349,-0.0767 -0.204525,0.204525 -0.255656,0.562444 -0.05113,0.741403 l 0.792535,0.230091 c 0.306787,0.0767 0.281221,0.281222 -0.17896,0.869231 -0.306787,0.40905 -1.04819,1.252715 -1.380543,1.585068 l -2.607693,2.812218 c -0.843666,0.920362 -1.431675,1.508372 -1.917422,1.508372 -0.409049,0 -0.434615,-0.460182 -0.434615,-1.150453 z" />
      <path
         id="path2050"
         style="font-style:normal;font-variant:normal;font-weight:bold;font-stretch:normal;font-size:25.5656px;font-family:'Adobe Garamond';-inkscape-font-specification:'Adobe Garamond, Bold';font-variant-ligatures:normal;font-variant-caps:normal;font-variant-numeric:normal;font-feature-settings:normal;text-align:start;writing-mode:lr-tb;text-anchor:start;stroke-width:0.264583px"
         d="m 94.67868,48.466305 c 1.022624,0 1.610634,-0.102263 1.764027,-0.332353 0.102263,-0.204525 0.127828,-0.357919 0.127828,-0.58801 0,-2.224208 -1.942987,-3.451358 -3.834842,-3.451358 -3.425793,0 -5.394346,2.786652 -5.394346,5.675567 0,2.914481 1.968553,5.113124 4.934164,5.113124 1.559503,0 3.451359,-0.766969 4.32059,-2.812218 -0.02557,-0.230091 -0.306787,-0.485747 -0.562444,-0.40905 -0.588009,0.945928 -1.431674,1.278281 -2.454299,1.278281 -2.27534,0 -3.860408,-1.840725 -3.860408,-4.14163 0,-0.306788 0.05113,-0.332353 0.536878,-0.332353 z M 90.281393,47.44368 c -0.306787,0 -0.357918,-0.0767 -0.357918,-0.178959 0,-0.536878 0.792534,-2.198644 2.50543,-2.198644 1.099322,0 1.687331,0.741403 1.687331,1.661766 0,0.23009 -0.102263,0.434615 -0.255656,0.536878 -0.17896,0.102262 -0.511313,0.178959 -1.252716,0.178959 z" />
      <path
         id="path2052"
         style="font-style:normal;font-variant:normal;font-weight:bold;font-stretch:normal;font-size:25.5656px;font-family:'Adobe Garamond';-inkscape-font-specification:'Adobe Garamond, Bold';font-variant-ligatures:normal;font-variant-caps:normal;font-variant-numeric:normal;font-feature-settings:normal;text-align:start;writing-mode:lr-tb;text-anchor:start;stroke-width:0.264583px"
         d="m 106.41849,47.290286 c 0.79254,-1.738462 1.15046,-1.917421 1.91742,-2.070815 l 0.51132,-0.102262 c 0.20452,-0.17896 0.17896,-0.639141 -0.0511,-0.741403 -0.56245,0.05113 -1.20159,0.0767 -1.8663,0.0767 -0.7414,0 -1.38054,-0.02557 -2.14751,-0.0767 -0.28122,0.102262 -0.30678,0.536878 -0.10226,0.741403 l 0.61358,0.127828 c 0.30678,0.05113 0.53687,0.153393 0.53687,0.332353 0,0.178959 -0.10226,0.511312 -0.35792,1.150453 -0.6647,1.610634 -1.27828,3.170136 -1.89185,4.448417 -0.38349,-0.766968 -1.68733,-3.937105 -2.04525,-4.883033 -0.15339,-0.383484 -0.20453,-0.664706 -0.20453,-0.8181 0,-0.153393 0.28123,-0.204525 0.63914,-0.281221 l 0.46019,-0.0767 c 0.23009,-0.17896 0.20452,-0.639141 -0.0511,-0.741403 -0.89479,0.05113 -1.66176,0.0767 -2.812213,0.0767 -0.894797,0 -1.789593,-0.02557 -2.68439,-0.0767 -0.204525,0.127828 -0.230091,0.562443 -0.05113,0.741403 l 0.485746,0.102262 c 0.766969,0.178959 1.048191,0.485747 1.559503,1.585069 0.485747,1.073755 1.891854,4.295023 2.454294,5.547739 0.30679,0.664706 0.71584,1.661765 0.9715,2.377602 0.12783,0.102263 0.28122,0.153394 0.46018,0.153394 0.17896,0 0.33235,-0.05113 0.43461,-0.153394 0.30679,-0.869231 0.79254,-2.070815 1.20159,-2.991177 z" />
      <path
         id="path2054"
         style="font-style:normal;font-variant:normal;font-weight:bold;font-stretch:normal;font-size:25.5656px;font-family:'Adobe Garamond';-inkscape-font-specification:'Adobe Garamond, Bold';font-variant-ligatures:normal;font-variant-caps:normal;font-variant-numeric:normal;font-feature-settings:normal;text-align:start;writing-mode:lr-tb;text-anchor:start;stroke-width:0.264583px"
         d="m 113.00403,47.060196 c 0,-1.048191 0.0256,-2.27534 0.0767,-3.119006 -0.0767,-0.127828 -0.20452,-0.178959 -0.35792,-0.204525 -0.71583,0.434616 -1.99412,0.997059 -3.32353,1.380544 -0.10226,0.127828 -0.10226,0.485746 -0.0256,0.588009 l 0.30678,0.178959 c 0.63914,0.383485 0.63914,0.690272 0.63914,1.840725 v 3.758146 c 0,1.891855 -0.10226,2.173077 -0.97149,2.300905 l -0.46018,0.0767 c -0.17896,0.17896 -0.15339,0.639141 0.0511,0.741403 0.97149,-0.05113 1.84073,-0.0767 2.68439,-0.0767 0.94593,0 1.81516,0.02557 2.76109,0.0767 0.20452,-0.102262 0.23009,-0.562443 0.0511,-0.741403 l -0.46018,-0.0767 c -0.86923,-0.127828 -0.9715,-0.40905 -0.9715,-2.300905 z m -1.35497,-6.340274 c 0.97149,0 1.6362,-0.690271 1.6362,-1.610634 0,-0.920362 -0.66471,-1.610634 -1.6362,-1.610634 -0.9715,0 -1.6362,0.690272 -1.6362,1.610634 0,0.920363 0.6647,1.610634 1.6362,1.610634 z" />
      <path
         id="path2056"
         style="font-style:normal;font-variant:normal;font-weight:bold;font-stretch:normal;font-size:25.5656px;font-family:'Adobe Garamond';-inkscape-font-specification:'Adobe Garamond, Bold';font-variant-ligatures:normal;font-variant-caps:normal;font-variant-numeric:normal;font-feature-settings:normal;text-align:start;writing-mode:lr-tb;text-anchor:start;stroke-width:0.264583px"
         d="m 119.84484,48.057255 c 0,-0.945928 0.0256,-1.176019 0.35791,-1.6362 0.25566,-0.383484 0.8948,-0.792534 1.68734,-0.792534 1.53393,0 2.04524,1.022625 2.04524,2.326471 v 3.528056 c 0,1.891855 -0.10226,2.173077 -0.97149,2.326471 l -0.38348,0.05113 c -0.17896,0.17896 -0.1534,0.639141 0.0511,0.741403 0.89479,-0.05113 1.76403,-0.0767 2.60769,-0.0767 0.94593,0 1.81516,0.02557 2.88892,0.0767 0.20452,-0.102262 0.23009,-0.562443 0.0511,-0.741403 l -0.58801,-0.0767 c -0.86923,-0.127828 -0.9715,-0.40905 -0.9715,-2.300905 v -3.962671 c 0,-1.994118 -0.97149,-3.425793 -3.0423,-3.425793 -1.58507,0 -2.30091,0.613575 -3.50249,1.278281 -0.1534,-0.02557 -0.23009,-0.0767 -0.23009,-0.255656 0,-0.204525 0,-0.690272 0.0511,-1.176019 -0.0511,-0.102262 -0.1534,-0.204525 -0.33236,-0.204525 -0.8181,0.460181 -2.22421,1.073756 -3.32353,1.380544 -0.10226,0.127828 -0.10226,0.485746 -0.0256,0.588009 l 0.30679,0.178959 c 0.63914,0.383485 0.63914,0.690272 0.63914,1.840725 v 3.758146 c 0,1.891855 -0.10227,2.173077 -0.9715,2.300905 l -0.56244,0.0767 c -0.17896,0.17896 -0.1534,0.639141 0.0511,0.741403 1.07376,-0.05113 1.94299,-0.0767 2.76109,-0.0767 0.94592,0 1.81516,0.02557 2.70995,0.0767 0.20453,-0.102262 0.23009,-0.562443 0.0511,-0.741403 l -0.38348,-0.05113 c -0.86923,-0.153394 -0.97149,-0.434616 -0.97149,-2.326471 z" />
      <path
         id="path2058"
         style="font-style:normal;font-variant:normal;font-weight:bold;font-stretch:normal;font-size:25.5656px;font-family:'Adobe Garamond';-inkscape-font-specification:'Adobe Garamond, Bold';font-variant-ligatures:normal;font-variant-caps:normal;font-variant-numeric:normal;font-feature-settings:normal;text-align:start;writing-mode:lr-tb;text-anchor:start;stroke-width:0.264583px"
         d="m 138.12585,50.843907 c 0,2.709956 -0.23009,2.786653 -1.43167,2.965612 l -0.40905,0.05113 c -0.17896,0.17896 -0.1534,0.639141 0.0511,0.741403 1.02262,-0.05113 2.17307,-0.0767 3.29796,-0.0767 1.12489,0 2.27534,0.02557 3.78371,0.0767 0.17896,-0.102262 0.20453,-0.562443 0.0511,-0.741403 l -0.94592,-0.102262 c -1.20159,-0.127828 -1.43168,-0.204525 -1.43168,-2.914481 V 39.671732 c 0,-0.997059 0.0256,-1.073756 1.30385,-1.073756 2.32647,0 3.65588,1.815159 3.65588,3.885974 0,2.096381 -0.84366,3.783712 -3.17013,4.243893 -0.12783,0.153393 -0.10227,0.485746 0.0767,0.63914 0.20453,0.02557 0.40905,0.02557 0.63914,0.02557 2.01969,0 5.7267,-1.073756 5.7267,-4.95973 0,-1.687331 -0.84366,-3.042309 -2.17308,-3.834843 -1.15045,-0.664706 -2.91448,-1.022625 -5.34321,-1.022625 -2.32647,0 -3.86041,0.02557 -5.65,0.230091 -0.20453,0.102262 -0.20453,0.536878 -0.0256,0.715837 l 0.8948,0.102263 c 1.07375,0.153393 1.09932,0.536878 1.09932,2.863349 z" />
      <path
         id="path2060"
         style="font-style:normal;font-variant:normal;font-weight:bold;font-stretch:normal;font-size:25.5656px;font-family:'Adobe Garamond';-inkscape-font-specification:'Adobe Garamond, Bold';font-variant-ligatures:normal;font-variant-caps:normal;font-variant-numeric:normal;font-feature-settings:normal;text-align:start;writing-mode:lr-tb;text-anchor:start;stroke-width:0.264583px"
         d="m 155.10661,44.094584 c -2.99117,0 -5.59887,2.147512 -5.59887,5.573305 0,3.349096 2.4543,5.215386 5.39435,5.215386 3.04231,0 5.59887,-1.891856 5.59887,-5.522174 0,-3.32353 -2.50543,-5.266517 -5.39435,-5.266517 z m -2.58212,5.18982 c 0,-2.837783 1.02262,-4.167195 2.32647,-4.167195 1.89185,0 2.63326,2.530996 2.63326,4.678508 0,1.968552 -0.51132,4.064933 -2.27534,4.064933 -1.84073,0 -2.68439,-2.249774 -2.68439,-4.576246 z" />
      <path
         id="path2062"
         style="font-style:normal;font-variant:normal;font-weight:bold;font-stretch:normal;font-size:25.5656px;font-family:'Adobe Garamond';-inkscape-font-specification:'Adobe Garamond, Bold';font-variant-ligatures:normal;font-variant-caps:normal;font-variant-numeric:normal;font-feature-settings:normal;text-align:start;writing-mode:lr-tb;text-anchor:start;stroke-width:0.264583px"
         d="m 163.24127,58.00228 c 0,1.891856 -0.10226,2.173078 -0.97149,2.300906 l -0.66471,0.0767 c -0.17896,0.178959 -0.15339,0.63914 0.0511,0.741403 1.02262,-0.05113 2.01968,-0.0767 2.86334,-0.0767 0.94593,0 1.94299,0.02557 3.2724,0.0767 0.20453,-0.102263 0.23009,-0.562444 0.0511,-0.741403 l -0.92036,-0.102263 c -0.89479,-0.102262 -0.99706,-0.383484 -0.99706,-2.27534 v -2.50543 c 0,-0.511313 0.1534,-0.664706 0.38349,-0.715838 0.23009,0.05113 0.8181,0.102263 1.12488,0.102263 3.75815,0 6.26358,-2.505431 6.26358,-6.059052 0,-2.633258 -1.61063,-4.729639 -4.39728,-4.729639 -1.32942,0 -2.83779,0.945928 -3.17014,1.099322 -0.12783,-0.02557 -0.20453,-0.17896 -0.20453,-0.332354 0,-0.23009 0.0511,-0.536877 0.12783,-0.997059 -0.0511,-0.153393 -0.20452,-0.255656 -0.40905,-0.255656 -0.76697,0.511313 -2.3009,1.22715 -3.32353,1.508372 -0.12783,0.127828 -0.12783,0.434615 -0.0256,0.588009 l 0.30678,0.204525 c 0.63914,0.460181 0.63914,0.664706 0.63914,1.815159 z m 2.68439,-10.175116 c 0,-1.073756 0.0767,-1.508371 0.28123,-1.738462 0.30678,-0.306787 0.79253,-0.511312 1.38054,-0.511312 1.99412,0 3.24683,1.661765 3.24683,4.090499 0,2.352037 -0.97149,4.192761 -2.73552,4.192761 -0.38348,0 -1.02262,-0.23009 -1.35498,-0.511312 -0.53687,-0.460181 -0.8181,-0.843666 -0.8181,-1.6362 z" />
      <path
         id="path2064"
         style="font-style:normal;font-variant:normal;font-weight:bold;font-stretch:normal;font-size:25.5656px;font-family:'Adobe Garamond';-inkscape-font-specification:'Adobe Garamond, Bold';font-variant-ligatures:normal;font-variant-caps:normal;font-variant-numeric:normal;font-feature-settings:normal;text-align:start;writing-mode:lr-tb;text-anchor:start;stroke-width:0.264583px"
         d="m 182.61043,48.466305 c 1.02262,0 1.61063,-0.102263 1.76402,-0.332353 0.10227,-0.204525 0.12783,-0.357919 0.12783,-0.58801 0,-2.224208 -1.94298,-3.451358 -3.83484,-3.451358 -3.42579,0 -5.39435,2.786652 -5.39435,5.675567 0,2.914481 1.96856,5.113124 4.93417,5.113124 1.5595,0 3.45136,-0.766969 4.32059,-2.812218 -0.0256,-0.230091 -0.30679,-0.485747 -0.56245,-0.40905 -0.588,0.945928 -1.43167,1.278281 -2.45429,1.278281 -2.27534,0 -3.86041,-1.840725 -3.86041,-4.14163 0,-0.306788 0.0511,-0.332353 0.53687,-0.332353 z m -4.39729,-1.022625 c -0.30679,0 -0.35792,-0.0767 -0.35792,-0.178959 0,-0.536878 0.79254,-2.198644 2.50543,-2.198644 1.09932,0 1.68733,0.741403 1.68733,1.661766 0,0.23009 -0.10226,0.434615 -0.25565,0.536878 -0.17896,0.102262 -0.51132,0.178959 -1.25272,0.178959 z" />
      <g
         aria-label="kpope@tecumsehcommunications.com"
         transform="scale(0.93142669,1.0736218)"
         id="text1606"
         style="font-style:normal;font-weight:normal;font-size:10.5833px;line-height:1.25;font-family:sans-serif;fill:#000000;fill-opacity:1;stroke:none;stroke-width:0.0700043px">
        <path
           d="m 89.741054,69.227784 h 0.509874 v 2.532832 l 1.513084,-1.331184 h 0.647678 l -1.637108,1.444183 1.70601,1.64262 h -0.661458 l -1.568206,-1.507572 v 1.507572 h -0.509874 z"
           style="font-size:5.64444px;stroke-width:0.0700043px"
           id="path1608" />
        <path
           d="m 93.519632,73.053215 v 1.637108 h -0.509874 v -4.260891 h 0.509874 v 0.468533 q 0.159852,-0.275608 0.402387,-0.407899 0.24529,-0.135048 0.584287,-0.135048 0.56224,0 0.912261,0.446484 0.352778,0.446484 0.352778,1.174088 0,0.727603 -0.352778,1.174087 -0.350021,0.446485 -0.912261,0.446485 -0.338997,0 -0.584287,-0.132292 -0.242535,-0.135048 -0.402387,-0.410655 z m 1.725302,-1.077625 q 0,-0.559483 -0.23151,-0.876432 -0.228754,-0.319704 -0.631141,-0.319704 -0.402387,0 -0.633897,0.319704 -0.228754,0.316949 -0.228754,0.876432 0,0.559483 0.228754,0.879188 0.23151,0.316948 0.633897,0.316948 0.402387,0 0.631141,-0.316948 0.23151,-0.319705 0.23151,-0.879188 z"
           style="font-size:5.64444px;stroke-width:0.0700043px"
           id="path1610" />
        <path
           d="m 97.808083,70.784966 q -0.407899,0 -0.644921,0.319704 -0.237022,0.316949 -0.237022,0.87092 0,0.553971 0.234266,0.873675 0.237022,0.316949 0.647677,0.316949 0.405143,0 0.642166,-0.319705 0.237022,-0.319704 0.237022,-0.870919 0,-0.548459 -0.237022,-0.868164 -0.237023,-0.32246 -0.642166,-0.32246 z m 0,-0.429948 q 0.661458,0 1.03904,0.429948 0.377582,0.429947 0.377582,1.190624 0,0.75792 -0.377582,1.190624 -0.377582,0.429948 -1.03904,0.429948 -0.664214,0 -1.041796,-0.429948 -0.374826,-0.432704 -0.374826,-1.190624 0,-0.760677 0.374826,-1.190624 0.377582,-0.429948 1.041796,-0.429948 z"
           style="font-size:5.64444px;stroke-width:0.0700043px"
           id="path1612" />
        <path
           d="m 100.55589,73.053215 v 1.637108 h -0.50987 v -4.260891 h 0.50987 v 0.468533 q 0.15985,-0.275608 0.40239,-0.407899 0.24529,-0.135048 0.58428,-0.135048 0.56224,0 0.91226,0.446484 0.35278,0.446484 0.35278,1.174088 0,0.727603 -0.35278,1.174087 -0.35002,0.446485 -0.91226,0.446485 -0.33899,0 -0.58428,-0.132292 -0.24254,-0.135048 -0.40239,-0.410655 z m 1.7253,-1.077625 q 0,-0.559483 -0.23151,-0.876432 -0.22875,-0.319704 -0.63114,-0.319704 -0.40239,0 -0.6339,0.319704 -0.22875,0.316949 -0.22875,0.876432 0,0.559483 0.22875,0.879188 0.23151,0.316948 0.6339,0.316948 0.40239,0 0.63114,-0.316948 0.23151,-0.319705 0.23151,-0.879188 z"
           style="font-size:5.64444px;stroke-width:0.0700043px"
           id="path1614" />
        <path
           d="m 106.28852,71.846054 v 0.248047 h -2.33163 q 0.0331,0.523654 0.31419,0.799262 0.28387,0.272851 0.78823,0.272851 0.29215,0 0.565,-0.07166 0.27561,-0.07166 0.5457,-0.214974 v 0.479557 q -0.27285,0.115755 -0.55948,0.176389 -0.28663,0.06063 -0.58153,0.06063 -0.73863,0 -1.17133,-0.429948 -0.42995,-0.429948 -0.42995,-1.163063 0,-0.757921 0.4079,-1.201649 0.41065,-0.446484 1.10518,-0.446484 0.62288,0 0.98392,0.402387 0.3638,0.399631 0.3638,1.088649 z m -0.50711,-0.148828 q -0.006,-0.416167 -0.23427,-0.664214 -0.226,-0.248046 -0.60082,-0.248046 -0.42444,0 -0.68075,0.239778 -0.25356,0.239779 -0.29215,0.675238 z"
           style="font-size:5.64444px;stroke-width:0.0700043px"
           id="path1616" />
        <path
           d="m 108.68906,72.036223 q 0,0.394119 0.19569,0.620117 0.19568,0.223242 0.53743,0.223242 0.339,0 0.53192,-0.225998 0.19568,-0.225998 0.19568,-0.617361 0,-0.38585 -0.19843,-0.611848 -0.19844,-0.228754 -0.53468,-0.228754 -0.33349,0 -0.53192,0.225998 -0.19569,0.225998 -0.19569,0.614604 z m 1.50206,0.824067 q -0.16536,0.212217 -0.38033,0.314192 -0.21222,0.09922 -0.4961,0.09922 -0.47404,0 -0.7717,-0.341753 -0.2949,-0.34451 -0.2949,-0.895725 0,-0.551214 0.29766,-0.895724 0.29765,-0.344509 0.76894,-0.344509 0.28388,0 0.49885,0.104731 0.21498,0.101975 0.37758,0.311436 v -0.361046 h 0.39412 v 2.028471 q 0.40239,-0.06063 0.62839,-0.366558 0.22875,-0.30868 0.22875,-0.796505 0,-0.2949 -0.0882,-0.553971 -0.0854,-0.259071 -0.26183,-0.479557 -0.28663,-0.361046 -0.70004,-0.551215 -0.41066,-0.192925 -0.89573,-0.192925 -0.33899,0 -0.65043,0.09095 -0.31144,0.08819 -0.57602,0.264583 -0.4327,0.28112 -0.67799,0.738628 -0.24254,0.454753 -0.24254,0.986675 0,0.438216 0.1571,0.82131 0.15985,0.383094 0.46026,0.675238 0.28939,0.286632 0.66973,0.43546 0.38034,0.151584 0.81304,0.151584 0.35553,0 0.69729,-0.121267 0.34451,-0.118511 0.63114,-0.341753 l 0.24805,0.305924 q -0.34451,0.267339 -0.75241,0.407899 -0.40515,0.143316 -0.82407,0.143316 -0.50987,0 -0.96187,-0.181901 -0.452,-0.179145 -0.80477,-0.523654 -0.35278,-0.34451 -0.53744,-0.796506 -0.18465,-0.454752 -0.18465,-0.97565 0,-0.501606 0.18741,-0.956358 0.18741,-0.454752 0.53468,-0.799261 0.35553,-0.350022 0.82131,-0.534679 0.46577,-0.187413 0.98667,-0.187413 0.58429,0 1.08314,0.239779 0.5016,0.239778 0.8406,0.68075 0.20671,0.270095 0.31419,0.587044 0.11025,0.316948 0.11025,0.655946 0,0.724847 -0.43822,1.14377 -0.43821,0.418924 -1.20992,0.43546 z"
           style="font-size:5.64444px;stroke-width:0.0700043px"
           id="path1618" />
        <path
           d="m 113.2669,69.553001 v 0.876431 h 1.04456 v 0.394119 h -1.04456 v 1.675693 q 0,0.377582 0.10198,0.485069 0.10473,0.107487 0.42168,0.107487 h 0.5209 v 0.424435 h -0.5209 q -0.58705,0 -0.81029,-0.21773 -0.22324,-0.220485 -0.22324,-0.799261 v -1.675693 h -0.37207 v -0.394119 h 0.37207 v -0.876431 z"
           style="font-size:5.64444px;stroke-width:0.0700043px"
           id="path1620" />
        <path
           d="m 117.61875,71.846054 v 0.248047 h -2.33164 q 0.0331,0.523654 0.31419,0.799262 0.28388,0.272851 0.78824,0.272851 0.29214,0 0.56499,-0.07166 0.27561,-0.07166 0.5457,-0.214974 v 0.479557 q -0.27285,0.115755 -0.55948,0.176389 -0.28663,0.06063 -0.58153,0.06063 -0.73863,0 -1.17133,-0.429948 -0.42995,-0.429948 -0.42995,-1.163063 0,-0.757921 0.4079,-1.201649 0.41066,-0.446484 1.10519,-0.446484 0.62287,0 0.98391,0.402387 0.36381,0.399631 0.36381,1.088649 z m -0.50712,-0.148828 q -0.006,-0.416167 -0.23427,-0.664214 -0.226,-0.248046 -0.60082,-0.248046 -0.42444,0 -0.68075,0.239778 -0.25356,0.239779 -0.29215,0.675238 z"
           style="font-size:5.64444px;stroke-width:0.0700043px"
           id="path1622" />
        <path
           d="m 120.67248,70.547943 v 0.474045 q -0.21498,-0.118511 -0.43271,-0.176389 -0.21497,-0.06063 -0.43546,-0.06063 -0.49334,0 -0.76619,0.314192 -0.27285,0.311437 -0.27285,0.876432 0,0.564995 0.27285,0.879188 0.27285,0.311436 0.76619,0.311436 0.22049,0 0.43546,-0.05788 0.21773,-0.06063 0.43271,-0.179144 v 0.468532 q -0.21222,0.09922 -0.44098,0.148828 -0.22599,0.04961 -0.48231,0.04961 -0.69729,0 -1.10794,-0.438216 -0.41066,-0.438216 -0.41066,-1.182356 0,-0.755165 0.41341,-1.187868 0.41617,-0.432704 1.13826,-0.432704 0.23427,0 0.45751,0.04961 0.22324,0.04685 0.43271,0.143316 z"
           style="font-size:5.64444px;stroke-width:0.0700043px"
           id="path1624" />
        <path
           d="m 121.50205,72.298051 v -1.868619 h 0.50712 v 1.849326 q 0,0.438216 0.17088,0.658702 0.17087,0.21773 0.51263,0.21773 0.41065,0 0.64768,-0.261827 0.23977,-0.261827 0.23977,-0.713824 v -1.750107 h 0.50712 v 3.086803 h -0.50712 v -0.474044 q -0.18465,0.281119 -0.42994,0.418923 -0.24254,0.135048 -0.565,0.135048 -0.53192,0 -0.80753,-0.330729 -0.27561,-0.330729 -0.27561,-0.967382 z m 1.27607,-1.943033 z"
           style="font-size:5.64444px;stroke-width:0.0700043px"
           id="path1626" />
        <path
           d="m 127.5351,71.021988 q 0.19017,-0.341753 0.45475,-0.504361 0.26458,-0.162609 0.62287,-0.162609 0.48232,0 0.74414,0.338997 0.26183,0.336241 0.26183,0.959114 v 1.863106 h -0.50987 v -1.846569 q 0,-0.443728 -0.1571,-0.658702 -0.15709,-0.214974 -0.47956,-0.214974 -0.39411,0 -0.62287,0.261827 -0.22875,0.261827 -0.22875,0.713823 v 1.744595 h -0.50988 v -1.846569 q 0,-0.446484 -0.15709,-0.658702 -0.1571,-0.214974 -0.48507,-0.214974 -0.38861,0 -0.61736,0.264583 -0.22876,0.261827 -0.22876,0.711067 v 1.744595 h -0.50987 v -3.086803 h 0.50987 v 0.479557 q 0.17364,-0.283876 0.41617,-0.418923 0.24254,-0.135048 0.57602,-0.135048 0.33624,0 0.57051,0.170877 0.23702,0.170876 0.35002,0.496093 z"
           style="font-size:5.64444px;stroke-width:0.0700043px"
           id="path1628" />
        <path
           d="m 132.59801,70.520383 v 0.479557 q -0.21497,-0.110243 -0.44648,-0.165365 -0.23151,-0.05512 -0.47956,-0.05512 -0.37758,0 -0.56775,0.115755 -0.18741,0.115755 -0.18741,0.347265 0,0.176389 0.13504,0.278364 0.13505,0.09922 0.54295,0.190169 l 0.17363,0.03859 q 0.54019,0.115755 0.76619,0.327973 0.22876,0.209461 0.22876,0.587043 0,0.429948 -0.34176,0.680751 -0.339,0.250803 -0.93431,0.250803 -0.24804,0 -0.51814,-0.04961 -0.26734,-0.04685 -0.56499,-0.143316 v -0.523654 q 0.28112,0.146072 0.55397,0.220486 0.27285,0.07166 0.54019,0.07166 0.35829,0 0.55121,-0.121267 0.19293,-0.124024 0.19293,-0.347266 0,-0.206705 -0.14056,-0.316948 -0.13781,-0.110243 -0.6091,-0.212218 l -0.17638,-0.04134 q -0.47129,-0.09922 -0.68075,-0.303168 -0.20947,-0.206706 -0.20947,-0.564995 0,-0.43546 0.30868,-0.672482 0.30868,-0.237023 0.87644,-0.237023 0.28112,0 0.52916,0.04134 0.24805,0.04134 0.45751,0.124024 z"
           style="font-size:5.64444px;stroke-width:0.0700043px"
           id="path1630" />
        <path
           d="m 136.21122,71.846054 v 0.248047 h -2.33163 q 0.0331,0.523654 0.31419,0.799262 0.28387,0.272851 0.78823,0.272851 0.29215,0 0.565,-0.07166 0.27561,-0.07166 0.5457,-0.214974 v 0.479557 q -0.27285,0.115755 -0.55948,0.176389 -0.28663,0.06063 -0.58153,0.06063 -0.73863,0 -1.17133,-0.429948 -0.42995,-0.429948 -0.42995,-1.163063 0,-0.757921 0.4079,-1.201649 0.41065,-0.446484 1.10518,-0.446484 0.62288,0 0.98392,0.402387 0.3638,0.399631 0.3638,1.088649 z m -0.50711,-0.148828 q -0.006,-0.416167 -0.23427,-0.664214 -0.226,-0.248046 -0.60082,-0.248046 -0.42444,0 -0.68075,0.239778 -0.25356,0.239779 -0.29215,0.675238 z"
           style="font-size:5.64444px;stroke-width:0.0700043px"
           id="path1632" />
        <path
           d="m 139.60946,71.653129 v 1.863106 h -0.50712 v -1.846569 q 0,-0.438216 -0.17087,-0.655946 -0.17088,-0.21773 -0.51263,-0.21773 -0.41066,0 -0.64768,0.261827 -0.23702,0.261827 -0.23702,0.713823 v 1.744595 h -0.50988 v -4.288451 h 0.50988 v 1.681205 q 0.1819,-0.278363 0.42719,-0.416167 0.24805,-0.137804 0.57051,-0.137804 0.53192,0 0.80477,0.330729 0.27285,0.327973 0.27285,0.967382 z"
           style="font-size:5.64444px;stroke-width:0.0700043px"
           id="path1634" />
        <path
           d="m 142.84234,70.547943 v 0.474045 q -0.21498,-0.118511 -0.43271,-0.176389 -0.21497,-0.06063 -0.43546,-0.06063 -0.49333,0 -0.76618,0.314192 -0.27286,0.311437 -0.27286,0.876432 0,0.564995 0.27286,0.879188 0.27285,0.311436 0.76618,0.311436 0.22049,0 0.43546,-0.05788 0.21773,-0.06063 0.43271,-0.179144 v 0.468532 q -0.21222,0.09922 -0.44097,0.148828 -0.226,0.04961 -0.48232,0.04961 -0.69728,0 -1.10794,-0.438216 -0.41065,-0.438216 -0.41065,-1.182356 0,-0.755165 0.41341,-1.187868 0.41616,-0.432704 1.13826,-0.432704 0.23426,0 0.4575,0.04961 0.22325,0.04685 0.43271,0.143316 z"
           style="font-size:5.64444px;stroke-width:0.0700043px"
           id="path1636" />
        <path
           d="m 144.92042,70.784966 q -0.4079,0 -0.64492,0.319704 -0.23703,0.316949 -0.23703,0.87092 0,0.553971 0.23427,0.873675 0.23702,0.316949 0.64768,0.316949 0.40514,0 0.64216,-0.319705 0.23703,-0.319704 0.23703,-0.870919 0,-0.548459 -0.23703,-0.868164 -0.23702,-0.32246 -0.64216,-0.32246 z m 0,-0.429948 q 0.66146,0 1.03904,0.429948 0.37758,0.429947 0.37758,1.190624 0,0.75792 -0.37758,1.190624 -0.37758,0.429948 -1.03904,0.429948 -0.66422,0 -1.0418,-0.429948 -0.37482,-0.432704 -0.37482,-1.190624 0,-0.760677 0.37482,-1.190624 0.37758,-0.429948 1.0418,-0.429948 z"
           style="font-size:5.64444px;stroke-width:0.0700043px"
           id="path1638" />
        <path
           d="m 149.58094,71.021988 q 0.19017,-0.341753 0.45475,-0.504361 0.26459,-0.162609 0.62288,-0.162609 0.48231,0 0.74414,0.338997 0.26182,0.336241 0.26182,0.959114 v 1.863106 h -0.50987 v -1.846569 q 0,-0.443728 -0.1571,-0.658702 -0.15709,-0.214974 -0.47955,-0.214974 -0.39412,0 -0.62288,0.261827 -0.22875,0.261827 -0.22875,0.713823 v 1.744595 h -0.50987 v -1.846569 q 0,-0.446484 -0.1571,-0.658702 -0.1571,-0.214974 -0.48507,-0.214974 -0.38861,0 -0.61736,0.264583 -0.22875,0.261827 -0.22875,0.711067 v 1.744595 h -0.50988 v -3.086803 h 0.50988 v 0.479557 q 0.17363,-0.283876 0.41616,-0.418923 0.24254,-0.135048 0.57602,-0.135048 0.33624,0 0.57051,0.170877 0.23702,0.170876 0.35002,0.496093 z"
           style="font-size:5.64444px;stroke-width:0.0700043px"
           id="path1640" />
        <path
           d="m 155.07931,71.021988 q 0.19017,-0.341753 0.45475,-0.504361 0.26458,-0.162609 0.62287,-0.162609 0.48232,0 0.74414,0.338997 0.26183,0.336241 0.26183,0.959114 v 1.863106 h -0.50987 v -1.846569 q 0,-0.443728 -0.1571,-0.658702 -0.1571,-0.214974 -0.47956,-0.214974 -0.39412,0 -0.62287,0.261827 -0.22875,0.261827 -0.22875,0.713823 v 1.744595 h -0.50988 v -1.846569 q 0,-0.446484 -0.15709,-0.658702 -0.1571,-0.214974 -0.48507,-0.214974 -0.38861,0 -0.61736,0.264583 -0.22876,0.261827 -0.22876,0.711067 v 1.744595 h -0.50987 v -3.086803 h 0.50987 v 0.479557 q 0.17363,-0.283876 0.41617,-0.418923 0.24253,-0.135048 0.57602,-0.135048 0.33624,0 0.57051,0.170877 0.23702,0.170876 0.35002,0.496093 z"
           style="font-size:5.64444px;stroke-width:0.0700043px"
           id="path1642" />
        <path
           d="m 158.12201,72.298051 v -1.868619 h 0.50712 v 1.849326 q 0,0.438216 0.17088,0.658702 0.17087,0.21773 0.51263,0.21773 0.41065,0 0.64767,-0.261827 0.23978,-0.261827 0.23978,-0.713824 v -1.750107 h 0.50712 v 3.086803 h -0.50712 v -0.474044 q -0.18465,0.281119 -0.42994,0.418923 -0.24254,0.135048 -0.565,0.135048 -0.53192,0 -0.80753,-0.330729 -0.27561,-0.330729 -0.27561,-0.967382 z m 1.27607,-1.943033 z"
           style="font-size:5.64444px;stroke-width:0.0700043px"
           id="path1644" />
        <path
           d="m 164.31767,71.653129 v 1.863106 h -0.50712 v -1.846569 q 0,-0.438216 -0.17088,-0.655946 -0.17087,-0.21773 -0.51263,-0.21773 -0.41065,0 -0.64767,0.261827 -0.23703,0.261827 -0.23703,0.713823 v 1.744595 h -0.50987 v -3.086803 h 0.50987 v 0.479557 q 0.18191,-0.278363 0.4272,-0.416167 0.24804,-0.137804 0.5705,-0.137804 0.53193,0 0.80478,0.330729 0.27285,0.327973 0.27285,0.967382 z"
           style="font-size:5.64444px;stroke-width:0.0700043px"
           id="path1646" />
        <path
           d="m 165.32915,70.429432 h 0.50712 v 3.086803 h -0.50712 z m 0,-1.201648 h 0.50712 v 0.642165 h -0.50712 z"
           style="font-size:5.64444px;stroke-width:0.0700043px"
           id="path1648" />
        <path
           d="m 169.11875,70.547943 v 0.474045 q -0.21497,-0.118511 -0.4327,-0.176389 -0.21498,-0.06063 -0.43546,-0.06063 -0.49334,0 -0.76619,0.314192 -0.27285,0.311437 -0.27285,0.876432 0,0.564995 0.27285,0.879188 0.27285,0.311436 0.76619,0.311436 0.22048,0 0.43546,-0.05788 0.21773,-0.06063 0.4327,-0.179144 v 0.468532 q -0.21222,0.09922 -0.44097,0.148828 -0.226,0.04961 -0.48231,0.04961 -0.69729,0 -1.10795,-0.438216 -0.41065,-0.438216 -0.41065,-1.182356 0,-0.755165 0.41341,-1.187868 0.41617,-0.432704 1.13826,-0.432704 0.23427,0 0.45751,0.04961 0.22324,0.04685 0.4327,0.143316 z"
           style="font-size:5.64444px;stroke-width:0.0700043px"
           id="path1650" />
        <path
           d="m 171.40354,71.964566 q -0.61461,0 -0.85163,0.140559 -0.23702,0.14056 -0.23702,0.479557 0,0.270096 0.17639,0.429948 0.17914,0.157096 0.48507,0.157096 0.42167,0 0.67523,-0.297656 0.25632,-0.300412 0.25632,-0.796505 v -0.112999 z m 1.01148,-0.209462 v 1.761131 h -0.50712 v -0.468532 q -0.17363,0.281119 -0.43271,0.416167 -0.25907,0.132292 -0.63389,0.132292 -0.47405,0 -0.75517,-0.264584 -0.27836,-0.267339 -0.27836,-0.713823 0,-0.520898 0.34727,-0.785481 0.35002,-0.264583 1.04179,-0.264583 h 0.71107 v -0.04961 q 0,-0.350021 -0.23151,-0.54019 -0.22876,-0.192925 -0.64492,-0.192925 -0.26459,0 -0.51539,0.06339 -0.2508,0.06339 -0.48231,0.19017 v -0.468533 q 0.27836,-0.107487 0.54019,-0.159852 0.26183,-0.05512 0.50987,-0.05512 0.66973,0 1.00046,0.347265 0.33073,0.347266 0.33073,1.052821 z"
           style="font-size:5.64444px;stroke-width:0.0700043px"
           id="path1652" />
        <path
           d="m 173.96117,69.553001 v 0.876431 h 1.04455 v 0.394119 h -1.04455 v 1.675693 q 0,0.377582 0.10198,0.485069 0.10473,0.107487 0.42167,0.107487 h 0.5209 v 0.424435 h -0.5209 q -0.58704,0 -0.81028,-0.21773 -0.22324,-0.220485 -0.22324,-0.799261 v -1.675693 h -0.37207 v -0.394119 h 0.37207 v -0.876431 z"
           style="font-size:5.64444px;stroke-width:0.0700043px"
           id="path1654" />
        <path
           d="m 175.67269,70.429432 h 0.50712 v 3.086803 h -0.50712 z m 0,-1.201648 h 0.50712 v 0.642165 h -0.50712 z"
           style="font-size:5.64444px;stroke-width:0.0700043px"
           id="path1656" />
        <path
           d="m 178.43704,70.784966 q -0.4079,0 -0.64493,0.319704 -0.23702,0.316949 -0.23702,0.87092 0,0.553971 0.23427,0.873675 0.23702,0.316949 0.64768,0.316949 0.40514,0 0.64216,-0.319705 0.23702,-0.319704 0.23702,-0.870919 0,-0.548459 -0.23702,-0.868164 -0.23702,-0.32246 -0.64216,-0.32246 z m 0,-0.429948 q 0.66145,0 1.03904,0.429948 0.37758,0.429947 0.37758,1.190624 0,0.75792 -0.37758,1.190624 -0.37759,0.429948 -1.03904,0.429948 -0.66422,0 -1.0418,-0.429948 -0.37483,-0.432704 -0.37483,-1.190624 0,-0.760677 0.37483,-1.190624 0.37758,-0.429948 1.0418,-0.429948 z"
           style="font-size:5.64444px;stroke-width:0.0700043px"
           id="path1658" />
        <path
           d="m 183.26017,71.653129 v 1.863106 h -0.50712 v -1.846569 q 0,-0.438216 -0.17088,-0.655946 -0.17088,-0.21773 -0.51263,-0.21773 -0.41065,0 -0.64768,0.261827 -0.23702,0.261827 -0.23702,0.713823 v 1.744595 h -0.50987 v -3.086803 h 0.50987 v 0.479557 q 0.1819,-0.278363 0.42719,-0.416167 0.24805,-0.137804 0.57051,-0.137804 0.53192,0 0.80477,0.330729 0.27286,0.327973 0.27286,0.967382 z"
           style="font-size:5.64444px;stroke-width:0.0700043px"
           id="path1660" />
        <path
           d="m 186.23948,70.520383 v 0.479557 q -0.21497,-0.110243 -0.44648,-0.165365 -0.23151,-0.05512 -0.47956,-0.05512 -0.37758,0 -0.56775,0.115755 -0.18741,0.115755 -0.18741,0.347265 0,0.176389 0.13504,0.278364 0.13505,0.09922 0.54295,0.190169 l 0.17363,0.03859 q 0.54019,0.115755 0.76619,0.327973 0.22876,0.209461 0.22876,0.587043 0,0.429948 -0.34176,0.680751 -0.33899,0.250803 -0.93431,0.250803 -0.24804,0 -0.51814,-0.04961 -0.26734,-0.04685 -0.56499,-0.143316 v -0.523654 q 0.28112,0.146072 0.55397,0.220486 0.27285,0.07166 0.54019,0.07166 0.35829,0 0.55121,-0.121267 0.19293,-0.124024 0.19293,-0.347266 0,-0.206705 -0.14056,-0.316948 -0.1378,-0.110243 -0.60909,-0.212218 l -0.17639,-0.04134 q -0.47129,-0.09922 -0.68075,-0.303168 -0.20946,-0.206706 -0.20946,-0.564995 0,-0.43546 0.30868,-0.672482 0.30868,-0.237023 0.87643,-0.237023 0.28112,0 0.52916,0.04134 0.24805,0.04134 0.45751,0.124024 z"
           style="font-size:5.64444px;stroke-width:0.0700043px"
           id="path1662" />
        <path
           d="m 187.28404,72.816192 h 0.58153 v 0.700043 h -0.58153 z"
           style="font-size:5.64444px;stroke-width:0.0700043px"
           id="path1664" />
        <path
           d="m 191.22798,70.547943 v 0.474045 q -0.21497,-0.118511 -0.4327,-0.176389 -0.21498,-0.06063 -0.43546,-0.06063 -0.49334,0 -0.76619,0.314192 -0.27285,0.311437 -0.27285,0.876432 0,0.564995 0.27285,0.879188 0.27285,0.311436 0.76619,0.311436 0.22048,0 0.43546,-0.05788 0.21773,-0.06063 0.4327,-0.179144 v 0.468532 q -0.21222,0.09922 -0.44097,0.148828 -0.226,0.04961 -0.48231,0.04961 -0.69729,0 -1.10795,-0.438216 -0.41065,-0.438216 -0.41065,-1.182356 0,-0.755165 0.41341,-1.187868 0.41617,-0.432704 1.13826,-0.432704 0.23427,0 0.45751,0.04961 0.22324,0.04685 0.4327,0.143316 z"
           style="font-size:5.64444px;stroke-width:0.0700043px"
           id="path1666" />
        <path
           d="m 193.30606,70.784966 q -0.4079,0 -0.64492,0.319704 -0.23702,0.316949 -0.23702,0.87092 0,0.553971 0.23426,0.873675 0.23703,0.316949 0.64768,0.316949 0.40514,0 0.64217,-0.319705 0.23702,-0.319704 0.23702,-0.870919 0,-0.548459 -0.23702,-0.868164 -0.23703,-0.32246 -0.64217,-0.32246 z m 0,-0.429948 q 0.66146,0 1.03904,0.429948 0.37758,0.429947 0.37758,1.190624 0,0.75792 -0.37758,1.190624 -0.37758,0.429948 -1.03904,0.429948 -0.66421,0 -1.04179,-0.429948 -0.37483,-0.432704 -0.37483,-1.190624 0,-0.760677 0.37483,-1.190624 0.37758,-0.429948 1.04179,-0.429948 z"
           style="font-size:5.64444px;stroke-width:0.0700043px"
           id="path1668" />
        <path
           d="m 197.96658,71.021988 q 0.19017,-0.341753 0.45476,-0.504361 0.26458,-0.162609 0.62287,-0.162609 0.48231,0 0.74414,0.338997 0.26183,0.336241 0.26183,0.959114 v 1.863106 h -0.50988 v -1.846569 q 0,-0.443728 -0.15709,-0.658702 -0.1571,-0.214974 -0.47956,-0.214974 -0.39412,0 -0.62287,0.261827 -0.22876,0.261827 -0.22876,0.713823 v 1.744595 h -0.50987 v -1.846569 q 0,-0.446484 -0.1571,-0.658702 -0.15709,-0.214974 -0.48507,-0.214974 -0.3886,0 -0.61736,0.264583 -0.22875,0.261827 -0.22875,0.711067 v 1.744595 h -0.50988 v -3.086803 h 0.50988 v 0.479557 q 0.17363,-0.283876 0.41617,-0.418923 0.24253,-0.135048 0.57601,-0.135048 0.33625,0 0.57051,0.170877 0.23702,0.170876 0.35002,0.496093 z"
           style="font-size:5.64444px;stroke-width:0.0700043px"
           id="path1670" />
      </g>
    </g>
    <g
       id="text1966"
       style="font-style:normal;font-variant:normal;font-weight:normal;font-stretch:normal;font-size:6.0973px;line-height:125%;font-family:sans-serif;-inkscape-font-specification:'sans-serif, Normal';font-variant-ligatures:normal;font-variant-caps:normal;font-variant-numeric:normal;font-feature-settings:normal;text-align:start;letter-spacing:0px;word-spacing:0px;writing-mode:lr-tb;text-anchor:start;fill:#000000;fill-opacity:1;stroke:none;stroke-width:0.264583px;stroke-linecap:butt;stroke-linejoin:miter;stroke-opacity:1"
       transform="scale(1.0477563,0.95442041)"
       aria-label="EM: kevinpope.co@gmail.com">
      <path
         id="path2096"
         style="font-style:normal;font-variant:normal;font-weight:normal;font-stretch:normal;font-size:6.0973px;font-family:sans-serif;-inkscape-font-specification:'sans-serif, Normal';font-variant-ligatures:normal;font-variant-caps:normal;font-variant-numeric:normal;font-feature-settings:normal;text-align:start;writing-mode:lr-tb;text-anchor:start;stroke-width:0.264583px"
         d="m 74.881622,76.906944 h -2.920628 v -4.433043 h 2.920628 v 0.523986 h -2.331144 v 1.214696 h 2.331144 v 0.523986 h -2.331144 v 1.646389 h 2.331144 z" />
      <path
         id="path2098"
         style="font-style:normal;font-variant:normal;font-weight:normal;font-stretch:normal;font-size:6.0973px;font-family:sans-serif;-inkscape-font-specification:'sans-serif, Normal';font-variant-ligatures:normal;font-variant-caps:normal;font-variant-numeric:normal;font-feature-settings:normal;text-align:start;writing-mode:lr-tb;text-anchor:start;stroke-width:0.264583px"
         d="m 79.767199,76.906944 h -0.589485 v -3.819741 l -1.232558,2.599091 H 77.593847 L 76.37022,73.087203 v 3.819741 h -0.550782 v -4.433043 h 0.803843 l 1.181947,2.468095 1.143242,-2.468095 h 0.818729 z" />
      <path
         id="path2100"
         style="font-style:normal;font-variant:normal;font-weight:normal;font-stretch:normal;font-size:6.0973px;font-family:sans-serif;-inkscape-font-specification:'sans-serif, Normal';font-variant-ligatures:normal;font-variant-caps:normal;font-variant-numeric:normal;font-feature-settings:normal;text-align:start;writing-mode:lr-tb;text-anchor:start;stroke-width:0.264583px"
         d="m 82.110251,74.429918 h -0.711549 v -0.8485 h 0.711549 z m 0,2.477026 h -0.711549 v -0.8485 h 0.711549 z" />
    </g>
    <g
       id="text1966-7"
       style="font-style:normal;font-variant:normal;font-weight:normal;font-stretch:normal;font-size:11.4545px;line-height:125%;font-family:sans-serif;-inkscape-font-specification:'sans-serif, Normal';font-variant-ligatures:normal;font-variant-caps:normal;font-variant-numeric:normal;font-feature-settings:normal;text-align:start;letter-spacing:0px;word-spacing:0px;writing-mode:lr-tb;text-anchor:start;fill:#000000;fill-opacity:1;stroke:none;stroke-width:0.264583px;stroke-linecap:butt;stroke-linejoin:miter;stroke-opacity:1"
       transform="scale(1.1056562,0.90444027)"
       aria-label="Chief Executive">
      <path
         id="path2067"
         style="font-style:normal;font-variant:normal;font-weight:normal;font-stretch:normal;font-size:11.4545px;font-family:sans-serif;-inkscape-font-specification:'sans-serif, Normal';font-variant-ligatures:normal;font-variant-caps:normal;font-variant-numeric:normal;font-feature-settings:normal;text-align:start;writing-mode:lr-tb;text-anchor:start;stroke-width:0.264583px"
         d="m 75.09999,68.387722 q -0.307616,0.134232 -0.559302,0.251686 -0.246093,0.117453 -0.64879,0.246093 -0.341174,0.106267 -0.743871,0.178976 -0.397105,0.0783 -0.878104,0.0783 -0.906069,0 -1.64994,-0.251685 -0.738279,-0.257279 -1.286395,-0.799802 -0.536929,-0.531337 -0.838952,-1.347917 -0.302023,-0.822174 -0.302023,-1.90722 0,-1.029115 0.290837,-1.840103 0.290837,-0.810987 0.838952,-1.370289 0.531337,-0.542523 1.280801,-0.827767 0.755058,-0.285244 1.672313,-0.285244 0.671162,0 1.336731,0.162198 0.671162,0.162197 1.487743,0.570488 v 1.314359 H 75.0161 q -0.687941,-0.576081 -1.364697,-0.838953 -0.676755,-0.262872 -1.448591,-0.262872 -0.632011,0 -1.140976,0.206942 -0.503372,0.201349 -0.900476,0.632011 -0.385918,0.419477 -0.604046,1.062674 -0.212535,0.637604 -0.212535,1.476556 0,0.878104 0.234907,1.510115 0.2405,0.632011 0.615232,1.029116 0.391511,0.413883 0.911662,0.615232 0.525744,0.195755 1.107418,0.195755 0.799801,0 1.498929,-0.274058 0.699127,-0.274058 1.308766,-0.822173 h 0.0783 z" />
      <path
         id="path2069"
         style="font-style:normal;font-variant:normal;font-weight:normal;font-stretch:normal;font-size:11.4545px;font-family:sans-serif;-inkscape-font-specification:'sans-serif, Normal';font-variant-ligatures:normal;font-variant-caps:normal;font-variant-numeric:normal;font-feature-settings:normal;text-align:start;writing-mode:lr-tb;text-anchor:start;stroke-width:0.264583px"
         d="m 81.817205,68.991768 h -1.051488 v -3.55716 q 0,-0.430662 -0.05034,-0.805394 -0.05034,-0.380325 -0.184569,-0.59286 -0.139826,-0.234907 -0.402698,-0.346767 -0.262871,-0.117454 -0.682348,-0.117454 -0.430662,0 -0.900476,0.212535 -0.469813,0.212535 -0.900476,0.542523 v 4.664577 h -1.051487 v -8.702736 h 1.051487 v 3.148869 q 0.492186,-0.40829 1.01793,-0.637604 0.525743,-0.229314 1.079452,-0.229314 1.012336,0 1.543673,0.609639 0.531337,0.609639 0.531337,1.756208 z" />
      <path
         id="path2071"
         style="font-style:normal;font-variant:normal;font-weight:normal;font-stretch:normal;font-size:11.4545px;font-family:sans-serif;-inkscape-font-specification:'sans-serif, Normal';font-variant-ligatures:normal;font-variant-caps:normal;font-variant-numeric:normal;font-feature-settings:normal;text-align:start;writing-mode:lr-tb;text-anchor:start;stroke-width:0.264583px"
         d="m 84.971667,61.698472 h -1.18572 v -1.090638 h 1.18572 z m -0.06712,7.293296 h -1.051488 v -6.247401 h 1.051488 z" />
      <path
         id="path2073"
         style="font-style:normal;font-variant:normal;font-weight:normal;font-stretch:normal;font-size:11.4545px;font-family:sans-serif;-inkscape-font-specification:'sans-serif, Normal';font-variant-ligatures:normal;font-variant-caps:normal;font-variant-numeric:normal;font-feature-settings:normal;text-align:start;writing-mode:lr-tb;text-anchor:start;stroke-width:0.264583px"
         d="m 92.225812,65.977131 h -4.603054 q 0,0.576081 0.173384,1.006743 0.173383,0.42507 0.475406,0.699128 0.290837,0.268465 0.687941,0.402697 0.402698,0.134232 0.883697,0.134232 0.637604,0 1.280802,-0.251685 0.64879,-0.257279 0.922848,-0.503372 h 0.05593 v 1.146569 q -0.531337,0.22372 -1.085046,0.374732 -0.553709,0.151011 -1.163348,0.151011 -1.554859,0 -2.427369,-0.838952 -0.872511,-0.844546 -0.872511,-2.393812 0,-1.532487 0.833359,-2.432963 0.838953,-0.900476 2.20365,-0.900476 1.264022,0 1.94637,0.738278 0.687941,0.738279 0.687941,2.097382 z M 91.20229,65.171736 q -0.0056,-0.827766 -0.419477,-1.280801 -0.40829,-0.453034 -1.247243,-0.453034 -0.844545,0 -1.347917,0.497778 -0.497779,0.497779 -0.564895,1.236057 z" />
      <path
         id="path2075"
         style="font-style:normal;font-variant:normal;font-weight:normal;font-stretch:normal;font-size:11.4545px;font-family:sans-serif;-inkscape-font-specification:'sans-serif, Normal';font-variant-ligatures:normal;font-variant-caps:normal;font-variant-numeric:normal;font-feature-settings:normal;text-align:start;writing-mode:lr-tb;text-anchor:start;stroke-width:0.264583px"
         d="m 97.181227,61.306961 h -0.05593 q -0.173383,-0.05034 -0.453034,-0.100674 -0.279651,-0.05593 -0.492186,-0.05593 -0.676755,0 -0.984371,0.302023 -0.302023,0.29643 -0.302023,1.079453 v 0.212535 h 1.896033 v 0.883696 H 94.92724 v 5.363705 H 93.875753 V 63.628063 H 93.16544 v -0.883696 h 0.710313 v -0.206942 q 0,-1.113011 0.553709,-1.705871 0.553708,-0.598453 1.599603,-0.598453 0.35236,0 0.632011,0.03356 0.285244,0.03356 0.520151,0.0783 z" />
      <path
         id="path2077"
         style="font-style:normal;font-variant:normal;font-weight:normal;font-stretch:normal;font-size:11.4545px;font-family:sans-serif;-inkscape-font-specification:'sans-serif, Normal';font-variant-ligatures:normal;font-variant-caps:normal;font-variant-numeric:normal;font-feature-settings:normal;text-align:start;writing-mode:lr-tb;text-anchor:start;stroke-width:0.264583px"
         d="m 107.44441,68.991768 h -5.48675 v -8.328004 h 5.48675 v 0.984371 h -4.37933 v 2.281951 h 4.37933 v 0.984372 h -4.37933 v 3.092939 h 4.37933 z" />
      <path
         id="path2079"
         style="font-style:normal;font-variant:normal;font-weight:normal;font-stretch:normal;font-size:11.4545px;font-family:sans-serif;-inkscape-font-specification:'sans-serif, Normal';font-variant-ligatures:normal;font-variant-caps:normal;font-variant-numeric:normal;font-feature-settings:normal;text-align:start;writing-mode:lr-tb;text-anchor:start;stroke-width:0.264583px"
         d="m 114.53077,68.991768 h -1.32555 l -1.77298,-2.399405 -1.78418,2.399405 h -1.22487 l 2.43856,-3.115311 -2.41618,-3.13209 h 1.32554 l 1.7618,2.360253 1.7674,-2.360253 h 1.23046 l -2.45534,3.07616 z" />
      <path
         id="path2081"
         style="font-style:normal;font-variant:normal;font-weight:normal;font-stretch:normal;font-size:11.4545px;font-family:sans-serif;-inkscape-font-specification:'sans-serif, Normal';font-variant-ligatures:normal;font-variant-caps:normal;font-variant-numeric:normal;font-feature-settings:normal;text-align:start;writing-mode:lr-tb;text-anchor:start;stroke-width:0.264583px"
         d="m 120.9963,65.977131 h -4.60306 q 0,0.576081 0.17339,1.006743 0.17338,0.42507 0.4754,0.699128 0.29084,0.268465 0.68794,0.402697 0.4027,0.134232 0.8837,0.134232 0.63761,0 1.2808,-0.251685 0.64879,-0.257279 0.92285,-0.503372 h 0.0559 v 1.146569 q -0.53134,0.22372 -1.08504,0.374732 -0.55371,0.151011 -1.16335,0.151011 -1.55486,0 -2.42737,-0.838952 -0.87251,-0.844546 -0.87251,-2.393812 0,-1.532487 0.83336,-2.432963 0.83895,-0.900476 2.20365,-0.900476 1.26402,0 1.94637,0.738278 0.68794,0.738279 0.68794,2.097382 z m -1.02353,-0.805395 q -0.006,-0.827766 -0.41947,-1.280801 -0.40829,-0.453034 -1.24724,-0.453034 -0.84455,0 -1.34792,0.497778 -0.49778,0.497779 -0.5649,1.236057 z" />
      <path
         id="path2083"
         style="font-style:normal;font-variant:normal;font-weight:normal;font-stretch:normal;font-size:11.4545px;font-family:sans-serif;-inkscape-font-specification:'sans-serif, Normal';font-variant-ligatures:normal;font-variant-caps:normal;font-variant-numeric:normal;font-feature-settings:normal;text-align:start;writing-mode:lr-tb;text-anchor:start;stroke-width:0.264583px"
         d="m 127.21014,68.600257 q -0.52574,0.251685 -1.00115,0.391511 -0.46981,0.139825 -1.00115,0.139825 -0.67676,0 -1.24165,-0.195755 -0.56489,-0.201349 -0.96759,-0.604046 -0.40829,-0.402698 -0.63201,-1.01793 -0.22372,-0.615232 -0.22372,-1.437405 0,-1.532487 0.83895,-2.404998 0.84454,-0.872511 2.22602,-0.872511 0.53693,0 1.05149,0.151012 0.52015,0.151011 0.95081,0.369139 v 1.168941 h -0.0559 q -0.481,-0.374733 -0.99556,-0.576081 -0.50896,-0.201349 -0.99555,-0.201349 -0.89489,0 -1.41504,0.604046 -0.51456,0.598453 -0.51456,1.761801 0,1.129789 0.50338,1.739428 0.50896,0.604046 1.42622,0.604046 0.3188,0 0.64879,-0.08389 0.32998,-0.08389 0.59286,-0.218128 0.22931,-0.117453 0.43066,-0.246092 0.20135,-0.134233 0.3188,-0.229314 h 0.0559 z" />
      <path
         id="path2085"
         style="font-style:normal;font-variant:normal;font-weight:normal;font-stretch:normal;font-size:11.4545px;font-family:sans-serif;-inkscape-font-specification:'sans-serif, Normal';font-variant-ligatures:normal;font-variant-caps:normal;font-variant-numeric:normal;font-feature-settings:normal;text-align:start;writing-mode:lr-tb;text-anchor:start;stroke-width:0.264583px"
         d="m 133.74279,68.991768 h -1.05149 v -0.693534 q -0.53134,0.419476 -1.01793,0.643197 -0.48659,0.22372 -1.07386,0.22372 -0.98437,0 -1.53249,-0.598452 -0.54811,-0.604046 -0.54811,-1.767394 v -4.054938 h 1.05148 v 3.557159 q 0,0.475407 0.0447,0.816581 0.0447,0.335581 0.19016,0.576081 0.15101,0.246092 0.39151,0.357953 0.2405,0.11186 0.69913,0.11186 0.40829,0 0.88929,-0.212534 0.48659,-0.212535 0.90607,-0.542523 v -4.664577 h 1.05149 z" />
      <path
         id="path2087"
         style="font-style:normal;font-variant:normal;font-weight:normal;font-stretch:normal;font-size:11.4545px;font-family:sans-serif;-inkscape-font-specification:'sans-serif, Normal';font-variant-ligatures:normal;font-variant-caps:normal;font-variant-numeric:normal;font-feature-settings:normal;text-align:start;writing-mode:lr-tb;text-anchor:start;stroke-width:0.264583px"
         d="m 139.05616,68.935838 q -0.29643,0.0783 -0.64879,0.128639 -0.34677,0.05034 -0.62083,0.05034 -0.95641,0 -1.45418,-0.514557 -0.49778,-0.514558 -0.49778,-1.649941 v -3.322253 h -0.71032 V 62.74437 h 0.71032 v -1.795359 h 1.05148 v 1.795359 h 2.1701 v 0.883696 h -2.1701 v 2.846847 q 0,0.492185 0.0224,0.771836 0.0224,0.274058 0.1566,0.514558 0.12305,0.223721 0.33558,0.329988 0.21813,0.100674 0.65998,0.100674 0.25728,0 0.53693,-0.07271 0.27965,-0.0783 0.4027,-0.128639 h 0.0559 z" />
      <path
         id="path2089"
         style="font-style:normal;font-variant:normal;font-weight:normal;font-stretch:normal;font-size:11.4545px;font-family:sans-serif;-inkscape-font-specification:'sans-serif, Normal';font-variant-ligatures:normal;font-variant-caps:normal;font-variant-numeric:normal;font-feature-settings:normal;text-align:start;writing-mode:lr-tb;text-anchor:start;stroke-width:0.264583px"
         d="m 141.46115,61.698472 h -1.18572 v -1.090638 h 1.18572 z m -0.0671,7.293296 h -1.05149 v -6.247401 h 1.05149 z" />
      <path
         id="path2091"
         style="font-style:normal;font-variant:normal;font-weight:normal;font-stretch:normal;font-size:11.4545px;font-family:sans-serif;-inkscape-font-specification:'sans-serif, Normal';font-variant-ligatures:normal;font-variant-caps:normal;font-variant-numeric:normal;font-feature-settings:normal;text-align:start;writing-mode:lr-tb;text-anchor:start;stroke-width:0.264583px"
         d="m 148.88868,62.744367 -2.52804,6.247401 h -1.05708 l -2.51127,-6.247401 h 1.14098 l 1.93518,4.972193 1.91841,-4.972193 z" />
      <path
         id="path2093"
         style="font-style:normal;font-variant:normal;font-weight:normal;font-stretch:normal;font-size:11.4545px;font-family:sans-serif;-inkscape-font-specification:'sans-serif, Normal';font-variant-ligatures:normal;font-variant-caps:normal;font-variant-numeric:normal;font-feature-settings:normal;text-align:start;writing-mode:lr-tb;text-anchor:start;stroke-width:0.264583px"
         d="m 155.40455,65.977131 h -4.60306 q 0,0.576081 0.17339,1.006743 0.17338,0.42507 0.4754,0.699128 0.29084,0.268465 0.68794,0.402697 0.4027,0.134232 0.8837,0.134232 0.6376,0 1.2808,-0.251685 0.64879,-0.257279 0.92285,-0.503372 h 0.0559 v 1.146569 q -0.53134,0.22372 -1.08505,0.374732 -0.5537,0.151011 -1.16334,0.151011 -1.55486,0 -2.42737,-0.838952 -0.87251,-0.844546 -0.87251,-2.393812 0,-1.532487 0.83336,-2.432963 0.83895,-0.900476 2.20364,-0.900476 1.26403,0 1.94637,0.738278 0.68795,0.738279 0.68795,2.097382 z m -1.02353,-0.805395 q -0.006,-0.827766 -0.41947,-1.280801 -0.40829,-0.453034 -1.24725,-0.453034 -0.84454,0 -1.34791,0.497778 -0.49778,0.497779 -0.5649,1.236057 z" />
    </g>
    <g
       id="text1966-78"
       style="font-style:normal;font-variant:normal;font-weight:normal;font-stretch:normal;font-size:6.0973px;line-height:125%;font-family:sans-serif;-inkscape-font-specification:'sans-serif, Normal';font-variant-ligatures:normal;font-variant-caps:normal;font-variant-numeric:normal;font-feature-settings:normal;text-align:start;letter-spacing:0px;word-spacing:0px;writing-mode:lr-tb;text-anchor:start;fill:#000000;fill-opacity:1;stroke:none;stroke-width:0.264583px;stroke-linecap:butt;stroke-linejoin:miter;stroke-opacity:1"
       transform="scale(1.0477563,0.95442041)"
       aria-label="PH: 509-209-7985">
      <path
         id="path2147"
         style="font-style:normal;font-variant:normal;font-weight:normal;font-stretch:normal;font-size:6.0973px;font-family:sans-serif;-inkscape-font-specification:'sans-serif, Normal';font-variant-ligatures:normal;font-variant-caps:normal;font-variant-numeric:normal;font-feature-settings:normal;text-align:start;writing-mode:lr-tb;text-anchor:start;stroke-width:0.264583px"
         d="m 74.860782,81.507059 q 0,0.294742 -0.104202,0.547804 -0.101225,0.250084 -0.285811,0.43467 -0.229244,0.229244 -0.541849,0.345355 -0.312606,0.113133 -0.788957,0.113133 h -0.589485 v 1.652344 h -0.589484 v -4.433044 h 1.202787 q 0.398944,0 0.675823,0.06848 0.276879,0.0655 0.491237,0.208404 0.253062,0.1697 0.390013,0.422761 0.139928,0.253062 0.139928,0.640097 z m -0.613302,0.01489 q 0,-0.229244 -0.08038,-0.398944 -0.08038,-0.1697 -0.24413,-0.276879 -0.142905,-0.09229 -0.327491,-0.130997 -0.181609,-0.04168 -0.461465,-0.04168 h -0.583531 v 1.771431 h 0.497192 q 0.357263,0 0.580553,-0.06252 0.22329,-0.0655 0.363218,-0.205426 0.139928,-0.142905 0.196495,-0.300697 0.05954,-0.157791 0.05954,-0.354286 z" />
      <path
         id="path2149"
         style="font-style:normal;font-variant:normal;font-weight:normal;font-stretch:normal;font-size:6.0973px;font-family:sans-serif;-inkscape-font-specification:'sans-serif, Normal';font-variant-ligatures:normal;font-variant-caps:normal;font-variant-numeric:normal;font-feature-settings:normal;text-align:start;writing-mode:lr-tb;text-anchor:start;stroke-width:0.264583px"
         d="M 79.031832,84.600365 H 78.442347 V 82.42999 h -2.212056 v 2.170375 h -0.589484 v -4.433044 h 0.589484 v 1.738682 h 2.212056 v -1.738682 h 0.589485 z" />
      <path
         id="path2151"
         style="font-style:normal;font-variant:normal;font-weight:normal;font-stretch:normal;font-size:6.0973px;font-family:sans-serif;-inkscape-font-specification:'sans-serif, Normal';font-variant-ligatures:normal;font-variant-caps:normal;font-variant-numeric:normal;font-feature-settings:normal;text-align:start;writing-mode:lr-tb;text-anchor:start;stroke-width:0.264583px"
         d="m 81.371907,82.123338 h -0.711549 v -0.8485 h 0.711549 z m 0,2.477027 h -0.711549 v -0.848501 h 0.711549 z" />
      <path
         id="path2153"
         style="font-style:normal;font-variant:normal;font-weight:normal;font-stretch:normal;font-size:6.0973px;font-family:sans-serif;-inkscape-font-specification:'sans-serif, Normal';font-variant-ligatures:normal;font-variant-caps:normal;font-variant-numeric:normal;font-feature-settings:normal;text-align:start;writing-mode:lr-tb;text-anchor:start;stroke-width:0.264583px"
         d="m 87.993189,83.192151 q 0,0.309629 -0.113133,0.592462 -0.113134,0.282834 -0.309629,0.476351 -0.214358,0.208404 -0.512077,0.321538 -0.294742,0.110156 -0.684755,0.110156 -0.363218,0 -0.699641,-0.07741 -0.336423,-0.07443 -0.568644,-0.181609 v -0.628188 h 0.04168 q 0.24413,0.154814 0.571621,0.26497 0.327492,0.107179 0.643074,0.107179 0.211381,0 0.407876,-0.05954 0.199472,-0.05954 0.354286,-0.208404 0.130997,-0.128019 0.196495,-0.306651 0.06848,-0.178631 0.06848,-0.41383 0,-0.229244 -0.08038,-0.387035 -0.07741,-0.157791 -0.217335,-0.253062 -0.154814,-0.113133 -0.378104,-0.157791 -0.220312,-0.04763 -0.494214,-0.04763 -0.261993,0 -0.506123,0.03573 -0.241153,0.03573 -0.416808,0.07145 v -2.283509 h 2.667567 v 0.52101 H 85.870449 V 81.8673 q 0.128019,-0.01191 0.261993,-0.01786 0.133974,-0.006 0.232221,-0.006 0.360241,0 0.631166,0.06252 0.270924,0.05954 0.497191,0.214358 0.238176,0.163746 0.369172,0.422762 0.130997,0.259016 0.130997,0.649028 z" />
      <path
         id="path2155"
         style="font-style:normal;font-variant:normal;font-weight:normal;font-stretch:normal;font-size:6.0973px;font-family:sans-serif;-inkscape-font-specification:'sans-serif, Normal';font-variant-ligatures:normal;font-variant-caps:normal;font-variant-numeric:normal;font-feature-settings:normal;text-align:start;writing-mode:lr-tb;text-anchor:start;stroke-width:0.264583px"
         d="m 91.905222,82.382354 q 0,1.193856 -0.375126,1.753568 -0.37215,0.556736 -1.158129,0.556736 -0.797888,0 -1.167061,-0.565667 -0.366195,-0.565667 -0.366195,-1.738682 0,-1.181947 0.37215,-1.744636 0.372149,-0.565667 1.161106,-0.565667 0.797888,0 1.164083,0.574598 0.369172,0.571622 0.369172,1.72975 z m -0.783002,1.351647 q 0.104202,-0.241153 0.139928,-0.565667 0.0387,-0.327492 0.0387,-0.78598 0,-0.452533 -0.0387,-0.785979 -0.03573,-0.333446 -0.142905,-0.565667 -0.104202,-0.229244 -0.285811,-0.345355 -0.178632,-0.11611 -0.461465,-0.11611 -0.279856,0 -0.464443,0.11611 -0.181608,0.116111 -0.288787,0.351309 -0.101225,0.220313 -0.139929,0.574599 -0.03573,0.354286 -0.03573,0.777048 0,0.464442 0.03275,0.777048 0.03275,0.312605 0.139928,0.559712 0.09825,0.232222 0.276879,0.354287 0.181609,0.122065 0.479329,0.122065 0.279856,0 0.464442,-0.116111 0.184586,-0.116111 0.285811,-0.351309 z" />
      <path
         id="path2157"
         style="font-style:normal;font-variant:normal;font-weight:normal;font-stretch:normal;font-size:6.0973px;font-family:sans-serif;-inkscape-font-specification:'sans-serif, Normal';font-variant-ligatures:normal;font-variant-caps:normal;font-variant-numeric:normal;font-feature-settings:normal;text-align:start;writing-mode:lr-tb;text-anchor:start;stroke-width:0.264583px"
         d="m 95.787485,82.117384 q 0,0.580553 -0.133973,1.053927 -0.130997,0.473374 -0.398944,0.80682 -0.270925,0.3394 -0.678801,0.523986 -0.407876,0.184586 -0.958657,0.184586 -0.154814,0 -0.291765,-0.01786 -0.136951,-0.01489 -0.24413,-0.05061 v -0.568644 h 0.02977 q 0.08634,0.04466 0.24413,0.08634 0.157791,0.0387 0.351309,0.0387 0.65796,0 1.03011,-0.39299 0.375126,-0.395967 0.43467,-1.089653 -0.276879,0.166723 -0.521009,0.238175 -0.24413,0.07145 -0.532918,0.07145 -0.273902,0 -0.497192,-0.05359 -0.220312,-0.05359 -0.443602,-0.208403 -0.261993,-0.181609 -0.395966,-0.461465 -0.130997,-0.279857 -0.130997,-0.669869 0,-0.678801 0.446579,-1.10454 0.446579,-0.425738 1.089654,-0.425738 0.321537,0 0.595439,0.101224 0.273901,0.09825 0.479328,0.29772 0.253061,0.247107 0.390012,0.637119 0.136951,0.387036 0.136951,1.003315 z m -0.601393,-0.128019 q 0,-0.461466 -0.09527,-0.741322 -0.09527,-0.279856 -0.261993,-0.43467 -0.139929,-0.133974 -0.300697,-0.190541 -0.160769,-0.05954 -0.348332,-0.05954 -0.428716,0 -0.6788,0.267948 -0.247107,0.267947 -0.247107,0.75323 0,0.282834 0.08038,0.461465 0.08038,0.178632 0.270925,0.312606 0.133973,0.09229 0.294742,0.125042 0.160768,0.02977 0.357263,0.02977 0.232221,0 0.470397,-0.06252 0.238176,-0.06252 0.446579,-0.181609 0.003,-0.06252 0.006,-0.122065 0.006,-0.06252 0.006,-0.157791 z" />
      <path
         id="path2159"
         style="font-style:normal;font-variant:normal;font-weight:normal;font-stretch:normal;font-size:6.0973px;font-family:sans-serif;-inkscape-font-specification:'sans-serif, Normal';font-variant-ligatures:normal;font-variant-caps:normal;font-variant-numeric:normal;font-feature-settings:normal;text-align:start;writing-mode:lr-tb;text-anchor:start;stroke-width:0.264583px"
         d="m 98.508641,82.930158 h -1.85777 v -0.538872 h 1.85777 z" />
      <path
         id="path2161"
         style="font-style:normal;font-variant:normal;font-weight:normal;font-stretch:normal;font-size:6.0973px;font-family:sans-serif;-inkscape-font-specification:'sans-serif, Normal';font-variant-ligatures:normal;font-variant-caps:normal;font-variant-numeric:normal;font-feature-settings:normal;text-align:start;writing-mode:lr-tb;text-anchor:start;stroke-width:0.264583px"
         d="m 102.45045,84.600365 h -3.001015 v -0.622234 q 0.312605,-0.267948 0.625215,-0.535895 0.31558,-0.267948 0.5865,-0.532918 0.57162,-0.553758 0.78301,-0.878273 0.21138,-0.327491 0.21138,-0.705595 0,-0.345354 -0.22925,-0.538872 -0.22626,-0.196495 -0.63414,-0.196495 -0.27093,0 -0.58651,0.09527 -0.315581,0.09527 -0.616277,0.291765 h -0.02977 v -0.625211 q 0.211381,-0.104201 0.562687,-0.19054 0.35429,-0.08634 0.68476,-0.08634 0.68177,0 1.06881,0.330469 0.38703,0.327491 0.38703,0.890181 0,0.253062 -0.0655,0.473374 -0.0625,0.217336 -0.18757,0.41383 -0.11611,0.184586 -0.2739,0.363218 -0.15481,0.178632 -0.3781,0.395967 -0.31856,0.312606 -0.65796,0.607348 -0.3394,0.291765 -0.63415,0.541849 h 2.38474 z" />
      <path
         id="path2163"
         style="font-style:normal;font-variant:normal;font-weight:normal;font-stretch:normal;font-size:6.0973px;font-family:sans-serif;-inkscape-font-specification:'sans-serif, Normal';font-variant-ligatures:normal;font-variant-caps:normal;font-variant-numeric:normal;font-feature-settings:normal;text-align:start;writing-mode:lr-tb;text-anchor:start;stroke-width:0.264583px"
         d="m 106.32676,82.382354 q 0,1.193856 -0.37513,1.753568 -0.37215,0.556736 -1.15813,0.556736 -0.79789,0 -1.16706,-0.565667 -0.36619,-0.565667 -0.36619,-1.738682 0,-1.181947 0.37214,-1.744636 0.37215,-0.565667 1.16111,-0.565667 0.79789,0 1.16408,0.574598 0.36918,0.571622 0.36918,1.72975 z m -0.78301,1.351647 q 0.10421,-0.241153 0.13993,-0.565667 0.0387,-0.327492 0.0387,-0.78598 0,-0.452533 -0.0387,-0.785979 -0.0357,-0.333446 -0.1429,-0.565667 -0.10421,-0.229244 -0.28581,-0.345355 -0.17864,-0.11611 -0.46147,-0.11611 -0.27986,0 -0.46444,0.11611 -0.18161,0.116111 -0.28879,0.351309 -0.10122,0.220313 -0.13993,0.574599 -0.0357,0.354286 -0.0357,0.777048 0,0.464442 0.0327,0.777048 0.0327,0.312605 0.13993,0.559712 0.0983,0.232222 0.27688,0.354287 0.18161,0.122065 0.47933,0.122065 0.27986,0 0.46444,-0.116111 0.18459,-0.116111 0.28581,-0.351309 z" />
      <path
         id="path2165"
         style="font-style:normal;font-variant:normal;font-weight:normal;font-stretch:normal;font-size:6.0973px;font-family:sans-serif;-inkscape-font-specification:'sans-serif, Normal';font-variant-ligatures:normal;font-variant-caps:normal;font-variant-numeric:normal;font-feature-settings:normal;text-align:start;writing-mode:lr-tb;text-anchor:start;stroke-width:0.264583px"
         d="m 110.20902,82.117384 q 0,0.580553 -0.13398,1.053927 -0.13099,0.473374 -0.39894,0.80682 -0.27093,0.3394 -0.6788,0.523986 -0.40788,0.184586 -0.95866,0.184586 -0.15481,0 -0.29176,-0.01786 -0.13695,-0.01489 -0.24413,-0.05061 v -0.568644 h 0.0298 q 0.0863,0.04466 0.24413,0.08634 0.15779,0.0387 0.35131,0.0387 0.65796,0 1.03011,-0.39299 0.37512,-0.395967 0.43467,-1.089653 -0.27688,0.166723 -0.52101,0.238175 -0.24413,0.07145 -0.53292,0.07145 -0.2739,0 -0.49719,-0.05359 -0.22031,-0.05359 -0.4436,-0.208403 -0.262,-0.181609 -0.39597,-0.461465 -0.131,-0.279857 -0.131,-0.669869 0,-0.678801 0.44658,-1.10454 0.44658,-0.425738 1.08966,-0.425738 0.32153,0 0.59544,0.101224 0.2739,0.09825 0.47932,0.29772 0.25307,0.247107 0.39002,0.637119 0.13695,0.387036 0.13695,1.003315 z m -0.6014,-0.128019 q 0,-0.461466 -0.0953,-0.741322 -0.0953,-0.279856 -0.26199,-0.43467 -0.13993,-0.133974 -0.3007,-0.190541 -0.16076,-0.05954 -0.34833,-0.05954 -0.42871,0 -0.6788,0.267948 -0.24711,0.267947 -0.24711,0.75323 0,0.282834 0.0804,0.461465 0.0804,0.178632 0.27092,0.312606 0.13398,0.09229 0.29475,0.125042 0.16076,0.02977 0.35726,0.02977 0.23222,0 0.4704,-0.06252 0.23817,-0.06252 0.44657,-0.181609 0.003,-0.06252 0.006,-0.122065 0.006,-0.06252 0.006,-0.157791 z" />
      <path
         id="path2167"
         style="font-style:normal;font-variant:normal;font-weight:normal;font-stretch:normal;font-size:6.0973px;font-family:sans-serif;-inkscape-font-specification:'sans-serif, Normal';font-variant-ligatures:normal;font-variant-caps:normal;font-variant-numeric:normal;font-feature-settings:normal;text-align:start;writing-mode:lr-tb;text-anchor:start;stroke-width:0.264583px"
         d="m 112.93017,82.930158 h -1.85777 v -0.538872 h 1.85777 z" />
      <path
         id="path2169"
         style="font-style:normal;font-variant:normal;font-weight:normal;font-stretch:normal;font-size:6.0973px;font-family:sans-serif;-inkscape-font-specification:'sans-serif, Normal';font-variant-ligatures:normal;font-variant-caps:normal;font-variant-numeric:normal;font-feature-settings:normal;text-align:start;writing-mode:lr-tb;text-anchor:start;stroke-width:0.264583px"
         d="m 116.88389,80.831236 -2.00663,3.769129 h -0.63712 l 2.13465,-3.912034 h -2.52466 v -0.52101 h 3.03376 z" />
      <path
         id="path2171"
         style="font-style:normal;font-variant:normal;font-weight:normal;font-stretch:normal;font-size:6.0973px;font-family:sans-serif;-inkscape-font-specification:'sans-serif, Normal';font-variant-ligatures:normal;font-variant-caps:normal;font-variant-numeric:normal;font-feature-settings:normal;text-align:start;writing-mode:lr-tb;text-anchor:start;stroke-width:0.264583px"
         d="m 120.74829,82.117384 q 0,0.580553 -0.13397,1.053927 -0.131,0.473374 -0.39895,0.80682 -0.27092,0.3394 -0.6788,0.523986 -0.40787,0.184586 -0.95866,0.184586 -0.15481,0 -0.29176,-0.01786 -0.13695,-0.01489 -0.24413,-0.05061 v -0.568644 h 0.0298 q 0.0863,0.04466 0.24413,0.08634 0.15779,0.0387 0.35131,0.0387 0.65796,0 1.03011,-0.39299 0.37513,-0.395967 0.43467,-1.089653 -0.27688,0.166723 -0.52101,0.238175 -0.24413,0.07145 -0.53292,0.07145 -0.2739,0 -0.49719,-0.05359 -0.22031,-0.05359 -0.4436,-0.208403 -0.26199,-0.181609 -0.39597,-0.461465 -0.13099,-0.279857 -0.13099,-0.669869 0,-0.678801 0.44658,-1.10454 0.44657,-0.425738 1.08965,-0.425738 0.32154,0 0.59544,0.101224 0.2739,0.09825 0.47933,0.29772 0.25306,0.247107 0.39001,0.637119 0.13695,0.387036 0.13695,1.003315 z m -0.60139,-0.128019 q 0,-0.461466 -0.0953,-0.741322 -0.0953,-0.279856 -0.262,-0.43467 -0.13993,-0.133974 -0.30069,-0.190541 -0.16077,-0.05954 -0.34834,-0.05954 -0.42871,0 -0.6788,0.267948 -0.2471,0.267947 -0.2471,0.75323 0,0.282834 0.0804,0.461465 0.0804,0.178632 0.27093,0.312606 0.13397,0.09229 0.29474,0.125042 0.16077,0.02977 0.35726,0.02977 0.23222,0 0.4704,-0.06252 0.23817,-0.06252 0.44658,-0.181609 0.003,-0.06252 0.006,-0.122065 0.006,-0.06252 0.006,-0.157791 z" />
      <path
         id="path2173"
         style="font-style:normal;font-variant:normal;font-weight:normal;font-stretch:normal;font-size:6.0973px;font-family:sans-serif;-inkscape-font-specification:'sans-serif, Normal';font-variant-ligatures:normal;font-variant-caps:normal;font-variant-numeric:normal;font-feature-settings:normal;text-align:start;writing-mode:lr-tb;text-anchor:start;stroke-width:0.264583px"
         d="m 124.66925,83.364829 q 0,0.574598 -0.44955,0.955679 -0.44658,0.381081 -1.12538,0.381081 -0.72048,0 -1.1492,-0.372149 -0.42574,-0.372149 -0.42574,-0.952702 0,-0.369173 0.21436,-0.666892 0.21436,-0.300697 0.60437,-0.476351 v -0.01786 q -0.35726,-0.190541 -0.52994,-0.416808 -0.1697,-0.226267 -0.1697,-0.565667 0,-0.500169 0.41085,-0.833614 0.41085,-0.333446 1.045,-0.333446 0.66391,0 1.05988,0.31856 0.39596,0.318559 0.39596,0.809797 0,0.300696 -0.18756,0.592461 -0.18756,0.288788 -0.55078,0.452534 v 0.01786 q 0.41681,0.178632 0.63712,0.440625 0.22031,0.261993 0.22031,0.666892 z m -0.70559,-2.164421 q 0,-0.31856 -0.24711,-0.506123 -0.24413,-0.190541 -0.62521,-0.190541 -0.37513,0 -0.61628,0.178632 -0.23818,0.178632 -0.23818,0.482306 0,0.214358 0.11909,0.372149 0.12207,0.154814 0.3662,0.276879 0.11015,0.05359 0.31558,0.139928 0.2084,0.08634 0.4049,0.142906 0.29474,-0.196495 0.40787,-0.407876 0.11314,-0.211381 0.11314,-0.48826 z m 0.0923,2.220987 q 0,-0.273901 -0.12206,-0.437647 -0.11909,-0.166723 -0.4704,-0.333446 -0.13993,-0.0655 -0.30665,-0.122065 -0.16673,-0.05657 -0.4436,-0.157791 -0.26795,0.145882 -0.4317,0.395967 -0.16077,0.250084 -0.16077,0.565667 0,0.401921 0.27688,0.663914 0.27688,0.261993 0.70262,0.261993 0.43467,0 0.69369,-0.223289 0.26199,-0.22329 0.26199,-0.613303 z" />
      <path
         id="path2175"
         style="font-style:normal;font-variant:normal;font-weight:normal;font-stretch:normal;font-size:6.0973px;font-family:sans-serif;-inkscape-font-specification:'sans-serif, Normal';font-variant-ligatures:normal;font-variant-caps:normal;font-variant-numeric:normal;font-feature-settings:normal;text-align:start;writing-mode:lr-tb;text-anchor:start;stroke-width:0.264583px"
         d="m 128.48304,83.192151 q 0,0.309629 -0.11313,0.592462 -0.11314,0.282834 -0.30963,0.476351 -0.21436,0.208404 -0.51208,0.321538 -0.29474,0.110156 -0.68475,0.110156 -0.36322,0 -0.69964,-0.07741 -0.33643,-0.07443 -0.56865,-0.181609 v -0.628188 h 0.0417 q 0.24413,0.154814 0.57162,0.26497 0.32749,0.107179 0.64308,0.107179 0.21138,0 0.40787,-0.05954 0.19947,-0.05954 0.35429,-0.208404 0.131,-0.128019 0.19649,-0.306651 0.0685,-0.178631 0.0685,-0.41383 0,-0.229244 -0.0804,-0.387035 -0.0774,-0.157791 -0.21734,-0.253062 -0.15481,-0.113133 -0.3781,-0.157791 -0.22032,-0.04763 -0.49422,-0.04763 -0.26199,0 -0.50612,0.03573 -0.24115,0.03573 -0.41681,0.07145 v -2.283509 h 2.66757 v 0.52101 H 126.3603 V 81.8673 q 0.12802,-0.01191 0.26199,-0.01786 0.13398,-0.006 0.23222,-0.006 0.36024,0 0.63117,0.06252 0.27092,0.05954 0.49719,0.214358 0.23818,0.163746 0.36917,0.422762 0.131,0.259016 0.131,0.649028 z" />
    </g>
  </g>
</svg>
