<?xml version="1.0" encoding="UTF-8" standalone="no"?>
<svg
   xmlns:dc="http://purl.org/dc/elements/1.1/"
   xmlns:cc="http://creativecommons.org/ns#"
   xmlns:rdf="http://www.w3.org/1999/02/22-rdf-syntax-ns#"
   xmlns:svg="http://www.w3.org/2000/svg"
   xmlns="http://www.w3.org/2000/svg"
   xmlns:sodipodi="http://sodipodi.sourceforge.net/DTD/sodipodi-0.dtd"
   xmlns:inkscape="http://www.inkscape.org/namespaces/inkscape"
   id="svg8"
   version="1.1"
   viewBox="0 0 30.000001 209.79806"
   height="792.93732"
   width="113.38583"
   sodipodi:docname="sceneControls.svg"
   inkscape:version="0.92.4 (5da689c313, 2019-01-14)">
  <sodipodi:namedview
     pagecolor="#ffffff"
     bordercolor="#666666"
     borderopacity="1"
     objecttolerance="10"
     gridtolerance="10"
     guidetolerance="10"
     inkscape:pageopacity="0"
     inkscape:pageshadow="2"
     inkscape:window-width="1920"
     inkscape:window-height="1246"
     id="namedview11"
     showgrid="false"
     inkscape:snap-global="true"
     fit-margin-top="0"
     fit-margin-left="0"
     fit-margin-right="0"
     fit-margin-bottom="0"
     inkscape:zoom="1.0305508"
     inkscape:cx="-213.88187"
     inkscape:cy="420.603"
     inkscape:window-x="-11"
     inkscape:window-y="-11"
     inkscape:window-maximized="1"
     inkscape:current-layer="svg8" />
  <defs
     id="defs2">
    <inkscape:perspective
       sodipodi:type="inkscape:persp3d"
       inkscape:vp_x="0 : 15.147649 : 1"
       inkscape:vp_y="0 : 999.99997 : 0"
       inkscape:vp_z="29.593447 : 15.147649 : 1"
       inkscape:persp3d-origin="14.796724 : 10.098433 : 1"
       id="perspective4730" />
  </defs>
  <metadata
     id="metadata5">
    <rdf:RDF>
      <cc:Work
         rdf:about="">
        <dc:format>image/svg+xml</dc:format>
        <dc:type
           rdf:resource="http://purl.org/dc/dcmitype/StillImage" />
        <dc:title></dc:title>
      </cc:Work>
    </rdf:RDF>
  </metadata>
  <g
     id="resetButton"
     transform="translate(57.967953,46.637131)">
    <ellipse
       ry="15.000002"
       rx="15.000001"
       cy="-31.637129"
       cx="-42.967949"
       id="resetBackground"
       style="font-style:normal;font-variant:normal;font-weight:normal;font-stretch:normal;font-size:16.05480194px;line-height:125%;font-family:sans-serif;-inkscape-font-specification:'sans-serif, Normal';text-align:start;letter-spacing:0px;word-spacing:0px;writing-mode:lr-tb;text-anchor:start;opacity:1;fill:#d5f4e6;fill-opacity:1;stroke:none;stroke-width:3.36500001;stroke-linecap:butt;stroke-linejoin:miter;stroke-miterlimit:4;stroke-dasharray:none;stroke-dashoffset:5.6692915;stroke-opacity:1" />
    <g
       style="stroke-width:1.53543305"
       transform="matrix(0.65113404,0,0,0.65143006,-74.42633,-178.1185)"
       id="resetArrow">
      <path
         style="opacity:1;fill:none;fill-opacity:1;stroke:#80ced6;stroke-width:17.07885361;stroke-linejoin:miter;stroke-miterlimit:4;stroke-dasharray:none;stroke-dashoffset:5.6692915;stroke-opacity:1"
         d="m -255.52108,-177.17627 a 42.894965,42.894965 0 0 1 22.13556,37.53698 v 0 a 42.894965,42.894965 0 0 1 -42.89497,42.894963 42.894965,42.894965 0 0 1 -42.89496,-42.894963 42.894965,42.894965 0 0 1 23.97375,-38.49631"
         id="path2625"
         transform="matrix(0.26458333,0,0,0.26458333,121.46492,261.86078)"
         inkscape:connector-curvature="0" />
      <path
         style="opacity:1;fill:#80ced6;fill-opacity:1;stroke:none;stroke-width:2.99133277;stroke-linejoin:miter;stroke-miterlimit:4;stroke-dasharray:none;stroke-dashoffset:5.6692915;stroke-opacity:1"
         id="path2627"
         d="m 63.620138,234.75073 5.189437,-6.03115 2.628418,7.50976 z"
         transform="matrix(0.59742196,-1.4790658,1.2672161,0.68241577,-282.71265,156.25912)"
         inkscape:connector-curvature="0" />
    </g>
  </g>
  <g
     id="truckButton"
     transform="translate(31.944827,150.25367)">
    <ellipse
       ry="15.000002"
       rx="15.000001"
       cy="44.54435"
       cx="-16.944822"
       id="truckBackground"
       style="font-style:normal;font-variant:normal;font-weight:normal;font-stretch:normal;font-size:16.05480194px;line-height:125%;font-family:sans-serif;-inkscape-font-specification:'sans-serif, Normal';text-align:start;letter-spacing:0px;word-spacing:0px;writing-mode:lr-tb;text-anchor:start;opacity:1;fill:#d5f4e6;fill-opacity:1;stroke:none;stroke-width:3.36500001;stroke-linecap:butt;stroke-linejoin:miter;stroke-miterlimit:4;stroke-dasharray:none;stroke-dashoffset:5.6692915;stroke-opacity:1" />
    <path
       inkscape:connector-curvature="0"
       id="truck"
       d="m -23.498876,51.447323 c -0.72504,-0.27415 -1.380993,-1.169716 -1.59523,-2.177952 L -25.208715,48.73 h -1.098306 c -0.604069,0 -1.167242,-0.04109 -1.251497,-0.0913 -0.125951,-0.07507 -0.153191,-0.366421 -0.153191,-1.638525 0,-1.633115 0.02751,-1.729827 0.492154,-1.729827 0.167185,0 0.185774,-0.116881 0.185774,-1.168101 0,-2.330397 0.389095,-2.781289 2.614861,-3.030159 2.498208,-0.279331 2.183297,-0.08382 3.245912,-2.015233 0.509435,-0.925951 1.06546,-1.802003 1.235612,-1.946782 0.273302,-0.232548 0.617755,-0.263234 2.95476,-0.263234 3.413959,0 3.364994,-0.03527 3.602324,2.594741 l 0.118771,1.316173 h 3.166569 c 2.3337586,0 3.1971336,0.04747 3.2827856,0.180505 0.07916,0.122951 0.116216,0.842349 0.116216,2.256297 v 2.075793 h 0.235199 c 0.429433,0 0.539574,0.353104 0.539574,1.729827 0,1.720908 -0.0075,1.729828 -1.452108,1.729828 h -1.1477318 l -0.11461,0.539371 c -0.394582,1.856966 -1.8609618,2.766519 -3.0324208,1.880927 -0.502162,-0.379621 -1.009597,-1.305219 -1.10009,-2.006644 l -0.05337,-0.413654 h -3.995669 -3.995668 l -0.260998,0.828559 c -0.300584,0.954224 -0.722641,1.513529 -1.370728,1.816468 -0.493844,0.230842 -0.613323,0.239034 -1.054289,0.07229 z m 1.110262,-1.401149 c 0.551084,-0.4389 0.804154,-1.141879 0.75119,-2.086661 -0.05123,-0.913695 -0.354629,-1.550522 -0.890032,-1.868102 -0.503949,-0.298925 -0.973167,-0.2124 -1.350918,0.249107 -0.881927,1.077474 -0.646519,3.405459 0.393303,3.889438 0.446908,0.20801 0.646531,0.17455 1.096457,-0.183782 z m 12.114821,0.188138 c 1.0488348,-0.452545 1.3479488,-2.621104 0.5177038,-3.753314 -0.4324428,-0.589726 -0.8975648,-0.715022 -1.4462078,-0.389587 -0.535402,0.31758 -0.838809,0.954407 -0.890031,1.868102 -0.05297,0.944782 0.200104,1.647761 0.751189,2.086661 0.477803,0.380534 0.579779,0.398508 1.067346,0.188138 z m -15.307288,-3.23414 v -0.526468 h -0.72635 -0.72635 v 0.526468 0.52647 h 0.72635 0.72635 z m 8.328818,0 v -0.526468 h -1.259007 -1.259008 v -0.60168 -0.601679 h 1.259008 1.259007 v -1.654619 -1.654618 h -2.157399 -2.157399 l 0.03656,0.564075 c 0.02789,0.43022 0.107008,0.635463 0.33343,0.864914 0.576935,0.584653 0.69007,0.991803 0.732601,2.636479 l 0.03879,1.500066 h 1.586707 1.586707 z m -2.130628,-3.384446 v -0.601679 h 0.726351 0.72635 v 0.601679 0.601679 h -0.72635 -0.726351 z m 6.117608,2.41085 c 0.04175,-1.614276 0.137978,-1.976183 0.698584,-2.627185 0.237501,-0.275799 0.43149,-0.315446 1.752227,-0.358118 1.3334528,-0.04308 1.5241608,-0.01708 1.8669918,0.254569 0.423039,0.335205 0.6770988,0.841295 0.7649948,1.523886 0.0507,0.393729 0.09929,0.450617 0.384883,0.450617 h 0.326858 v -1.654619 -1.654618 h -4.5033726 -4.503372 v 1.654618 1.654619 h 1.259008 1.259006 v 0.601679 0.60168 h -1.259006 -1.259008 v 0.526468 0.52647 h 1.586706 1.586708 z m 6.5693126,0.973596 v -0.526468 h -0.726351 -0.726351 v 0.526468 0.52647 h 0.726351 0.726351 z M -21.222978,45.564348 c 0,-0.445521 -0.06368,-0.707414 -0.237716,-0.97773 -0.229305,-0.356151 -0.284757,-0.369213 -1.567517,-0.369213 -1.232049,0 -1.346279,0.02404 -1.553949,0.32706 -0.162076,0.23649 -0.224147,0.494212 -0.224147,0.930663 v 0.603599 l 0.266328,-0.387019 c 0.716007,-1.040477 1.770076,-1.251429 2.578094,-0.515955 0.249601,0.227193 0.506657,0.544483 0.571235,0.705092 0.06458,0.16061 0.128724,0.292018 0.142544,0.292018 0.01382,0 0.02513,-0.273831 0.02513,-0.608515 z m 9.932598,-0.679147 c 0.72344,-0.326649 1.4144148,-0.105651 1.9671238,0.629153 l 0.399811,0.531532 v -0.613401 c 0,-0.412841 -0.06333,-0.711764 -0.193694,-0.914239 -0.175306,-0.272282 -0.322822,-0.300841 -1.5539478,-0.300841 -1.315095,0 -1.368149,0.01225 -1.597972,0.369213 -0.1714,0.266213 -0.237715,0.533435 -0.237715,0.957885 v 0.588672 l 0.344785,-0.50505 c 0.206132,-0.301949 0.556645,-0.600712 0.871609,-0.742924 z m -14.290701,0.144641 c 0,-0.533601 0.332066,-1.288812 0.72325,-1.644875 0.3673,-0.334324 0.514159,-0.37092 1.488522,-0.37092 h 1.081017 v -0.535685 -0.535687 l -0.4116,0.08415 c -0.352105,0.07199 -2.868607,0.385544 -3.094242,0.385544 -0.04262,0 -0.164649,0.135378 -0.271181,0.30084 -0.159259,0.247356 -0.193693,0.501399 -0.193693,1.428988 v 1.128149 h 0.338963 c 0.246053,0 0.338964,-0.06592 0.338964,-0.240503 z m 8.328818,-5.625871 v -1.353777 h -1.14365 c -0.772979,0 -1.190674,0.06094 -1.288733,0.188024 -0.213077,0.276146 -1.34464,2.318426 -1.34464,2.42685 0,0.05097 0.849831,0.09268 1.888511,0.09268 h 1.888512 z m 3.145012,0.547406 c -0.03567,-0.443506 -0.095,-1.035784 -0.13183,-1.316174 l -0.06696,-0.5098 -1.085725,-0.04253 -1.085722,-0.04253 v 1.358705 1.358704 h 1.217552 1.217552 z"
       style="fill:#80ced6;fill-opacity:1;stroke-width:1" />
  </g>
  <g
     id="cageButton"
     transform="translate(53.639341,111.39306)">
    <ellipse
       ry="15.000002"
       rx="15.000001"
       cy="0.38510966"
       cx="-38.639336"
       id="cageBackground"
       style="font-style:normal;font-variant:normal;font-weight:normal;font-stretch:normal;font-size:16.05480194px;line-height:125%;font-family:sans-serif;-inkscape-font-specification:'sans-serif, Normal';text-align:start;letter-spacing:0px;word-spacing:0px;writing-mode:lr-tb;text-anchor:start;opacity:1;fill:#d5f4e6;fill-opacity:1;stroke:none;stroke-width:3.36500001;stroke-linecap:butt;stroke-linejoin:miter;stroke-miterlimit:4;stroke-dasharray:none;stroke-dashoffset:5.6692915;stroke-opacity:1" />
    <path
       inkscape:connector-curvature="0"
       id="cage"
       d="m -45.020603,10.166676 c -0.745219,-0.3557601 -0.710981,0.122718 -0.710981,-9.93595209 0,-7.74649351 0.02513,-9.18168111 0.165383,-9.44451251 0.198024,-0.3711 0.782761,-0.6728242 1.304823,-0.6732872 0.984962,-8.351e-4 1.50944,0.5833093 1.513706,1.6860201 l 0.0025,0.6520573 h 4.178445 4.178444 l 0.04886,-0.7869662 c 0.05392,-0.8684236 0.236636,-1.1951977 0.794631,-1.4211352 0.729043,-0.2951982 1.69833,-0.032628 2.00566,0.5433112 0.247753,0.4642914 0.247753,18.4247315 0,18.8890235 -0.30733,0.5759401 -1.276617,0.8385091 -2.00566,0.5433121 -0.532562,-0.21564 -0.736139,-0.5569811 -0.793299,-1.3301411 l -0.05161,-0.698083 h -4.162979 -4.162979 l -0.05161,0.698083 c -0.03469,0.469147 -0.120457,0.780357 -0.261541,0.948955 -0.429006,0.5126751 -1.304516,0.6574261 -1.991819,0.3293151 z M -34.36016,4.7726419 v -1.079268 h -4.192494 -4.192495 v 1.079268 1.079267 h 4.192495 4.192494 z m 0,-4.49694919 v -1.0792672 h -4.192494 -4.192495 v 1.0792672 1.07926799 h 4.192495 4.192494 z m 0,-4.45197921 v -1.1242368 h -4.192494 -4.192495 v 1.1242368 1.1242377 h 4.192495 4.192494 z"
       style="fill:#80ced6;fill-opacity:1;stroke-width:1" />
  </g>
  <g
     id="liftButton"
     liftButton=""
     transform="translate(91.893563,124.53324)">
    <ellipse
       ry="15.000002"
       rx="15.000001"
       cy="28.754856"
       cx="-76.893562"
       id="liftBackground"
       style="font-style:normal;font-variant:normal;font-weight:normal;font-stretch:normal;font-size:16.05480194px;line-height:125%;font-family:sans-serif;-inkscape-font-specification:'sans-serif, Normal';text-align:start;letter-spacing:0px;word-spacing:0px;writing-mode:lr-tb;text-anchor:start;opacity:1;fill:#d5f4e6;fill-opacity:1;stroke:none;stroke-width:3.36500001;stroke-linecap:butt;stroke-linejoin:miter;stroke-miterlimit:4;stroke-dasharray:none;stroke-dashoffset:5.6692915;stroke-opacity:1" />
    <g
       style="stroke-width:2.22936106"
       transform="matrix(0.45152349,0,0,0.44561406,-84.463827,42.041919)"
       id="lift">
      <rect
         style="opacity:1;fill:#80ced6;fill-opacity:1;stroke:none;stroke-width:9.28528881;stroke-linejoin:miter;stroke-miterlimit:4;stroke-dasharray:none;stroke-dashoffset:5.6692915;stroke-opacity:1"
         id="rect4793"
         width="17.843412"
         height="5.0064254"
         x="-6.5468616"
         y="-18.550884" />
      <rect
         style="opacity:1;fill:#80ced6;fill-opacity:1;stroke:none;stroke-width:9.28528881;stroke-linejoin:miter;stroke-miterlimit:4;stroke-dasharray:none;stroke-dashoffset:5.6692915;stroke-opacity:1"
         id="rect4793-2"
         width="17.843412"
         height="5.0064259"
         x="21.95125"
         y="-18.550882" />
      <rect
         style="opacity:1;fill:#80ced6;fill-opacity:1;stroke:none;stroke-width:9.28528881;stroke-linejoin:miter;stroke-miterlimit:4;stroke-dasharray:none;stroke-dashoffset:5.6692915;stroke-opacity:1"
         id="rect4810"
         width="5.905015"
         height="31.578991"
         x="5.3915353"
         y="-50.129875" />
      <rect
         style="opacity:1;fill:#80ced6;fill-opacity:1;stroke:none;stroke-width:9.28528881;stroke-linejoin:miter;stroke-miterlimit:4;stroke-dasharray:none;stroke-dashoffset:5.6692915;stroke-opacity:1"
         id="rect4810-5"
         width="5.905015"
         height="31.578993"
         x="21.95125"
         y="-50.129875" />
      <rect
         style="opacity:1;fill:#80ced6;fill-opacity:1;stroke:none;stroke-width:9.28528881;stroke-linejoin:miter;stroke-miterlimit:4;stroke-dasharray:none;stroke-dashoffset:5.6692915;stroke-opacity:1"
         id="rect4793-2-6"
         width="21.437769"
         height="5.0064259"
         x="6.4184961"
         y="-50.129875" />
    </g>
  </g>
  <g
     id="antennaButton"
     transform="translate(-43.201907,82.048923)">
    <ellipse
       ry="15.000002"
       rx="15.000001"
       cy="-12.309846"
       cx="58.201912"
       id="antennaBackground"
       style="font-style:normal;font-variant:normal;font-weight:normal;font-stretch:normal;font-size:16.05480194px;line-height:125%;font-family:sans-serif;-inkscape-font-specification:'sans-serif, Normal';text-align:start;letter-spacing:0px;word-spacing:0px;writing-mode:lr-tb;text-anchor:start;opacity:1;fill:#d5f4e6;fill-opacity:1;stroke:none;stroke-width:3.36500001;stroke-linecap:butt;stroke-linejoin:miter;stroke-miterlimit:4;stroke-dasharray:none;stroke-dashoffset:5.6692915;stroke-opacity:1" />
    <path
       inkscape:connector-curvature="0"
       d="m 58.263495,-21.997376 c -1.080839,0.0085 -2.164237,0.304587 -2.86275,0.953715 -0.422551,0.392678 -0.529884,0.61569 -0.527452,1.094857 0.0047,0.920523 0.563854,1.411539 2.292569,2.01239 0.29172,0.101392 0.08445,0.668268 -2.514465,6.879787 l -2.832232,6.7693292 -1.459921,0.05418 c -1.220084,0.04527 -1.470598,0.0864 -1.523473,0.25012 -0.0348,0.107759 -0.01716,0.266515 0.03914,0.352962 0.08791,0.134999 1.431106,0.153199 9.528979,0.12908 l 9.426647,-0.02793 v -0.32503 -0.325029 l -1.460279,-0.05418 -1.46028,-0.05417 -2.834025,-6.7693292 c -2.600984,-6.212567 -2.807799,-6.778331 -2.515904,-6.879787 1.728896,-0.600931 2.288274,-1.091841 2.29293,-2.012389 0.0064,-1.278349 -1.78806,-2.062737 -3.589481,-2.048573 z m 0.09946,0.808552 c 0.785035,0 0.995789,0.04938 1.513061,0.354232 0.517269,0.304851 0.601059,0.429058 0.601059,0.891714 0,0.456424 -0.08589,0.588102 -0.568745,0.872671 -0.606987,0.357723 -1.685282,0.507394 -2.37264,0.329471 -0.818287,-0.211811 -1.286856,-0.651981 -1.286856,-1.208913 0,-0.455152 0.08581,-0.581284 0.60106,-0.884943 0.517272,-0.304852 0.728026,-0.354232 1.513061,-0.354232 z m 0,4.821268 c 0.195905,0 2.071289,4.752015 1.949314,4.939346 -0.06305,0.09683 -0.506712,0.460614 -0.985967,0.808341 -0.479266,0.347729 -0.912792,0.6322842 -0.963347,0.6322842 -0.14047,0 -1.819042,-1.2405542 -1.949315,-1.4406252 -0.12196,-0.187331 1.753409,-4.939346 1.949315,-4.939346 z m -2.535652,5.868516 0.569105,0.397187 c 0.312978,0.2185212 0.686712,0.4807312 0.830494,0.5827672 0.234139,0.166158 0.131511,0.279228 -0.982376,1.083432 -1.489885,1.075665 -1.742138,1.240232 -1.742138,1.135486 0,-0.04394 0.298127,-0.781811 0.662459,-1.639537 z m 5.071303,0 0.669639,1.5758422 c 0.368172,0.866766 0.639472,1.59362 0.602853,1.6152 -0.03662,0.02158 -0.710156,-0.426346 -1.496542,-0.995401 -1.273942,-0.921866 -1.401738,-1.054555 -1.171958,-1.217803 0.141839,-0.100769 0.513913,-0.36213 0.826905,-0.5806512 z m -2.535651,1.8342142 c 0.162535,0 4.64598,3.294446 4.783339,3.514804 0.07288,0.116921 0.191124,0.371118 0.262829,0.56478 l 0.130337,0.352115 H 58.362955 53.18645 l 0.130336,-0.352115 c 0.0717,-0.193662 0.189949,-0.447859 0.262829,-0.56478 0.137357,-0.220358 4.620804,-3.514804 4.78334,-3.514804 z"
       style="fill:#80ced6;fill-opacity:1;stroke-width:0.99999994"
       id="antenna" />
  </g>
</svg>
