<?xml version="1.0" encoding="UTF-8" standalone="no"?>
<svg
   xmlns:dc="http://purl.org/dc/elements/1.1/"
   xmlns:cc="http://creativecommons.org/ns#"
   xmlns:rdf="http://www.w3.org/1999/02/22-rdf-syntax-ns#"
   xmlns:svg="http://www.w3.org/2000/svg"
   xmlns="http://www.w3.org/2000/svg"
   width="113.38583"
   height="792.93732"
   viewBox="0 0 30.000001 209.79806"
   version="1.1"
   id="svg8">
  <defs
     id="defs2" />
  <metadata
     id="metadata5">
    <rdf:RDF>
      <cc:Work
         rdf:about="">
        <dc:format>image/svg+xml</dc:format>
        <dc:type
           rdf:resource="http://purl.org/dc/dcmitype/StillImage" />
        <dc:title></dc:title>
      </cc:Work>
    </rdf:RDF>
  </metadata>
  <g
     transform="translate(57.967953,46.637131)"
     id="resetButton">
    <ellipse
       style="font-style:normal;font-variant:normal;font-weight:normal;font-stretch:normal;font-size:16.05480194px;line-height:125%;font-family:sans-serif;-inkscape-font-specification:'sans-serif, Normal';text-align:start;letter-spacing:0px;word-spacing:0px;writing-mode:lr-tb;text-anchor:start;opacity:1;fill:#d5f4e6;fill-opacity:1;stroke:none;stroke-width:3.36500001;stroke-linecap:butt;stroke-linejoin:miter;stroke-miterlimit:4;stroke-dasharray:none;stroke-dashoffset:5.6692915;stroke-opacity:1"
       id="resetBackground"
       cx="-42.967949"
       cy="-31.637129"
       rx="15.000001"
       ry="15.000002" />
    <g
       id="resetArrow"
       transform="matrix(0.65113404,0,0,0.65143006,-74.42633,-178.1185)"
       style="stroke-width:1.53543305">
      <path
         transform="matrix(0.26458333,0,0,0.26458333,121.46492,261.86078)"
         id="path2625"
         d="m -255.52108,-177.17627 a 42.894965,42.894965 0 0 1 22.13556,37.53698 v 0 a 42.894965,42.894965 0 0 1 -42.89497,42.894963 42.894965,42.894965 0 0 1 -42.89496,-42.894963 42.894965,42.894965 0 0 1 23.97375,-38.49631"
         style="opacity:1;fill:none;fill-opacity:1;stroke:#80ced6;stroke-width:17.07885361;stroke-linejoin:miter;stroke-miterlimit:4;stroke-dasharray:none;stroke-dashoffset:5.6692915;stroke-opacity:1" />
      <path
         transform="matrix(0.59742196,-1.4790658,1.2672161,0.68241577,-282.71265,156.25912)"
         d="m 63.620138,234.75073 5.189437,-6.03115 2.628418,7.50976 z"
         id="path2627"
         style="opacity:1;fill:#80ced6;fill-opacity:1;stroke:none;stroke-width:2.99133277;stroke-linejoin:miter;stroke-miterlimit:4;stroke-dasharray:none;stroke-dashoffset:5.6692915;stroke-opacity:1" />
    </g>
  </g>
  <g
     transform="translate(31.944827,150.25367)"
     id="truckButton">
    <ellipse
       style="font-style:normal;font-variant:normal;font-weight:normal;font-stretch:normal;font-size:16.05480194px;line-height:125%;font-family:sans-serif;-inkscape-font-specification:'sans-serif, Normal';text-align:start;letter-spacing:0px;word-spacing:0px;writing-mode:lr-tb;text-anchor:start;opacity:1;fill:#d5f4e6;fill-opacity:1;stroke:none;stroke-width:3.36500001;stroke-linecap:butt;stroke-linejoin:miter;stroke-miterlimit:4;stroke-dasharray:none;stroke-dashoffset:5.6692915;stroke-opacity:1"
       id="truckBackground"
       cx="-16.944822"
       cy="44.54435"
       rx="15.000001"
       ry="15.000002" />
    <path
       style="fill:#80ced6;fill-opacity:1;stroke-width:1"
       d="m -23.498876,51.447323 c -0.72504,-0.27415 -1.380993,-1.169716 -1.59523,-2.177952 L -25.208715,48.73 h -1.098306 c -0.604069,0 -1.167242,-0.04109 -1.251497,-0.0913 -0.125951,-0.07507 -0.153191,-0.366421 -0.153191,-1.638525 0,-1.633115 0.02751,-1.729827 0.492154,-1.729827 0.167185,0 0.185774,-0.116881 0.185774,-1.168101 0,-2.330397 0.389095,-2.781289 2.614861,-3.030159 2.498208,-0.279331 2.183297,-0.08382 3.245912,-2.015233 0.509435,-0.925951 1.06546,-1.802003 1.235612,-1.946782 0.273302,-0.232548 0.617755,-0.263234 2.95476,-0.263234 3.413959,0 3.364994,-0.03527 3.602324,2.594741 l 0.118771,1.316173 h 3.166569 c 2.3337586,0 3.1971336,0.04747 3.2827856,0.180505 0.07916,0.122951 0.116216,0.842349 0.116216,2.256297 v 2.075793 h 0.235199 c 0.429433,0 0.539574,0.353104 0.539574,1.729827 0,1.720908 -0.0075,1.729828 -1.452108,1.729828 h -1.1477318 l -0.11461,0.539371 c -0.394582,1.856966 -1.8609618,2.766519 -3.0324208,1.880927 -0.502162,-0.379621 -1.009597,-1.305219 -1.10009,-2.006644 l -0.05337,-0.413654 h -3.995669 -3.995668 l -0.260998,0.828559 c -0.300584,0.954224 -0.722641,1.513529 -1.370728,1.816468 -0.493844,0.230842 -0.613323,0.239034 -1.054289,0.07229 z m 1.110262,-1.401149 c 0.551084,-0.4389 0.804154,-1.141879 0.75119,-2.086661 -0.05123,-0.913695 -0.354629,-1.550522 -0.890032,-1.868102 -0.503949,-0.298925 -0.973167,-0.2124 -1.350918,0.249107 -0.881927,1.077474 -0.646519,3.405459 0.393303,3.889438 0.446908,0.20801 0.646531,0.17455 1.096457,-0.183782 z m 12.114821,0.188138 c 1.0488348,-0.452545 1.3479488,-2.621104 0.5177038,-3.753314 -0.4324428,-0.589726 -0.8975648,-0.715022 -1.4462078,-0.389587 -0.535402,0.31758 -0.838809,0.954407 -0.890031,1.868102 -0.05297,0.944782 0.200104,1.647761 0.751189,2.086661 0.477803,0.380534 0.579779,0.398508 1.067346,0.188138 z m -15.307288,-3.23414 v -0.526468 h -0.72635 -0.72635 v 0.526468 0.52647 h 0.72635 0.72635 z m 8.328818,0 v -0.526468 h -1.259007 -1.259008 v -0.60168 -0.601679 h 1.259008 1.259007 v -1.654619 -1.654618 h -2.157399 -2.157399 l 0.03656,0.564075 c 0.02789,0.43022 0.107008,0.635463 0.33343,0.864914 0.576935,0.584653 0.69007,0.991803 0.732601,2.636479 l 0.03879,1.500066 h 1.586707 1.586707 z m -2.130628,-3.384446 v -0.601679 h 0.726351 0.72635 v 0.601679 0.601679 h -0.72635 -0.726351 z m 6.117608,2.41085 c 0.04175,-1.614276 0.137978,-1.976183 0.698584,-2.627185 0.237501,-0.275799 0.43149,-0.315446 1.752227,-0.358118 1.3334528,-0.04308 1.5241608,-0.01708 1.8669918,0.254569 0.423039,0.335205 0.6770988,0.841295 0.7649948,1.523886 0.0507,0.393729 0.09929,0.450617 0.384883,0.450617 h 0.326858 v -1.654619 -1.654618 h -4.5033726 -4.503372 v 1.654618 1.654619 h 1.259008 1.259006 v 0.601679 0.60168 h -1.259006 -1.259008 v 0.526468 0.52647 h 1.586706 1.586708 z m 6.5693126,0.973596 v -0.526468 h -0.726351 -0.726351 v 0.526468 0.52647 h 0.726351 0.726351 z M -21.222978,45.564348 c 0,-0.445521 -0.06368,-0.707414 -0.237716,-0.97773 -0.229305,-0.356151 -0.284757,-0.369213 -1.567517,-0.369213 -1.232049,0 -1.346279,0.02404 -1.553949,0.32706 -0.162076,0.23649 -0.224147,0.494212 -0.224147,0.930663 v 0.603599 l 0.266328,-0.387019 c 0.716007,-1.040477 1.770076,-1.251429 2.578094,-0.515955 0.249601,0.227193 0.506657,0.544483 0.571235,0.705092 0.06458,0.16061 0.128724,0.292018 0.142544,0.292018 0.01382,0 0.02513,-0.273831 0.02513,-0.608515 z m 9.932598,-0.679147 c 0.72344,-0.326649 1.4144148,-0.105651 1.9671238,0.629153 l 0.399811,0.531532 v -0.613401 c 0,-0.412841 -0.06333,-0.711764 -0.193694,-0.914239 -0.175306,-0.272282 -0.322822,-0.300841 -1.5539478,-0.300841 -1.315095,0 -1.368149,0.01225 -1.597972,0.369213 -0.1714,0.266213 -0.237715,0.533435 -0.237715,0.957885 v 0.588672 l 0.344785,-0.50505 c 0.206132,-0.301949 0.556645,-0.600712 0.871609,-0.742924 z m -14.290701,0.144641 c 0,-0.533601 0.332066,-1.288812 0.72325,-1.644875 0.3673,-0.334324 0.514159,-0.37092 1.488522,-0.37092 h 1.081017 v -0.535685 -0.535687 l -0.4116,0.08415 c -0.352105,0.07199 -2.868607,0.385544 -3.094242,0.385544 -0.04262,0 -0.164649,0.135378 -0.271181,0.30084 -0.159259,0.247356 -0.193693,0.501399 -0.193693,1.428988 v 1.128149 h 0.338963 c 0.246053,0 0.338964,-0.06592 0.338964,-0.240503 z m 8.328818,-5.625871 v -1.353777 h -1.14365 c -0.772979,0 -1.190674,0.06094 -1.288733,0.188024 -0.213077,0.276146 -1.34464,2.318426 -1.34464,2.42685 0,0.05097 0.849831,0.09268 1.888511,0.09268 h 1.888512 z m 3.145012,0.547406 c -0.03567,-0.443506 -0.095,-1.035784 -0.13183,-1.316174 l -0.06696,-0.5098 -1.085725,-0.04253 -1.085722,-0.04253 v 1.358705 1.358704 h 1.217552 1.217552 z"
       id="truck" />
  </g>
  <g
     transform="translate(53.639341,111.39306)"
     id="cageButton">
    <ellipse
       style="font-style:normal;font-variant:normal;font-weight:normal;font-stretch:normal;font-size:16.05480194px;line-height:125%;font-family:sans-serif;-inkscape-font-specification:'sans-serif, Normal';text-align:start;letter-spacing:0px;word-spacing:0px;writing-mode:lr-tb;text-anchor:start;opacity:1;fill:#d5f4e6;fill-opacity:1;stroke:none;stroke-width:3.36500001;stroke-linecap:butt;stroke-linejoin:miter;stroke-miterlimit:4;stroke-dasharray:none;stroke-dashoffset:5.6692915;stroke-opacity:1"
       id="cageBackground"
       cx="-38.639336"
       cy="0.38510966"
       rx="15.000001"
       ry="15.000002" />
    <path
       id="cage"
       d="m -50.722324,-3.270511 v 5.1974599 h 4.620627 V 7.671579 h 15.287806 V 1.9269489 h 4.620627 V -3.270511 Z"
       style="opacity:1;fill:#80ced6;fill-opacity:1;stroke:none;stroke-width:0.96500003;stroke-linejoin:miter;stroke-miterlimit:4;stroke-dasharray:none;stroke-dashoffset:0;stroke-opacity:1" />
  </g>
  <g
     transform="translate(91.893563,124.53324)"
     liftButton=""
     id="liftButton">
    <ellipse
       style="font-style:normal;font-variant:normal;font-weight:normal;font-stretch:normal;font-size:16.05480194px;line-height:125%;font-family:sans-serif;-inkscape-font-specification:'sans-serif, Normal';text-align:start;letter-spacing:0px;word-spacing:0px;writing-mode:lr-tb;text-anchor:start;opacity:1;fill:#d5f4e6;fill-opacity:1;stroke:none;stroke-width:3.36500001;stroke-linecap:butt;stroke-linejoin:miter;stroke-miterlimit:4;stroke-dasharray:none;stroke-dashoffset:5.6692915;stroke-opacity:1"
       id="liftBackground"
       cx="-76.893562"
       cy="28.754856"
       rx="15.000001"
       ry="15.000002" />
    <path
       id="lift"
       d="m -82.461301,23.601214 c -3.103772,0 -5.642512,2.95421 -5.642512,8.78542 v 1.09735 h 2.547288 v -1.09735 c 0,-3.2627 1.358586,-5.81514 3.095224,-5.81514 h 10.838583 c 1.736638,0 3.093889,2.55244 3.093889,5.81514 v 1.09735 h 2.547288 v -1.09735 c 0,-5.83121 -2.537406,-8.78542 -5.641177,-8.78542 z"
       style="color:#000000;font-style:normal;font-variant:normal;font-weight:normal;font-stretch:normal;font-size:medium;line-height:normal;font-family:sans-serif;font-variant-ligatures:normal;font-variant-position:normal;font-variant-caps:normal;font-variant-numeric:normal;font-variant-alternates:normal;font-feature-settings:normal;text-indent:0;text-align:start;text-decoration:none;text-decoration-line:none;text-decoration-style:solid;text-decoration-color:#000000;letter-spacing:normal;word-spacing:normal;text-transform:none;writing-mode:lr-tb;direction:ltr;text-orientation:mixed;dominant-baseline:auto;baseline-shift:baseline;text-anchor:start;white-space:normal;shape-padding:0;clip-rule:nonzero;display:inline;overflow:visible;visibility:visible;opacity:1;isolation:auto;mix-blend-mode:normal;color-interpolation:sRGB;color-interpolation-filters:linearRGB;solid-color:#000000;solid-opacity:1;vector-effect:none;fill:#80ced6;fill-opacity:1;fill-rule:nonzero;stroke:none;stroke-width:3.96875048;stroke-linecap:butt;stroke-linejoin:miter;stroke-miterlimit:4;stroke-dasharray:none;stroke-dashoffset:0;stroke-opacity:1;color-rendering:auto;image-rendering:auto;shape-rendering:auto;text-rendering:auto;enable-background:accumulate" />
  </g>
  <g
     transform="translate(-43.201907,82.048923)"
     id="antennaButton">
    <ellipse
       style="font-style:normal;font-variant:normal;font-weight:normal;font-stretch:normal;font-size:16.05480194px;line-height:125%;font-family:sans-serif;-inkscape-font-specification:'sans-serif, Normal';text-align:start;letter-spacing:0px;word-spacing:0px;writing-mode:lr-tb;text-anchor:start;opacity:1;fill:#d5f4e6;fill-opacity:1;stroke:none;stroke-width:3.36500001;stroke-linecap:butt;stroke-linejoin:miter;stroke-miterlimit:4;stroke-dasharray:none;stroke-dashoffset:5.6692915;stroke-opacity:1"
       id="antennaBackground"
       cx="58.201912"
       cy="-12.309846"
       rx="15.000001"
       ry="15.000002" />
    <g
       id="antenna">
      <path
         style="opacity:1;fill:#80ced6;fill-opacity:1;stroke:none;stroke-width:0.96500009;stroke-linejoin:miter;stroke-miterlimit:4;stroke-dasharray:none;stroke-dashoffset:0;stroke-opacity:1"
         d="m 51.991791,-20.222741 h 3.7276 l -1.43373,16.3089406 h -2.29387 z"
         id="rect837" />
      <path
         style="opacity:1;fill:#80ced6;fill-opacity:1;stroke:none;stroke-width:0.96500009;stroke-linejoin:miter;stroke-miterlimit:4;stroke-dasharray:none;stroke-dashoffset:0;stroke-opacity:1"
         d="m 64.551441,-20.222741 h -3.7276 l 1.43374,16.3089401 h 2.29386 z"
         id="rect837-1" />
    </g>
  </g>
</svg>
